<svg xmlns="http://www.w3.org/2000/svg" width="287.117" height="64.617" viewBox="0 0 287.117 64.617">
  <g id="グループ_266" data-name="グループ 266" transform="translate(-282.864 -316.945)">
    <g id="グループ_247" data-name="グループ 247" transform="translate(282.864 316.945)">
      <path id="パス_504" data-name="パス 504" d="M293.923,345.523c0,3,.262,3.48,4.361,3.48a12.421,12.421,0,0,0,7.313-2.511,15.54,15.54,0,0,0,4.317-5.509c.134-.264.221-.351.441-.351a.5.5,0,0,1,.528.482,85.1,85.1,0,0,1-2.379,9.21c-3.787-.089-8.546-.132-12.16-.132-4.315,0-9.03.043-12.82.132-.439,0-.485-.045-.485-.353,0-.353.045-.4.485-.441,3.569-.221,4.231-.924,4.231-4.053V322.215c0-3.173-.484-3.833-4.451-4.1-.4-.043-.439-.089-.439-.4,0-.353.043-.4.439-.4,3.746.089,8.282.132,12.38.132,4.01,0,8.371-.043,12.071-.132.266,2.291.794,6.389,1.1,8.68,0,.353-.221.484-.617.484-.177,0-.266-.132-.354-.353a12.332,12.332,0,0,0-3.7-5.42c-1.542-1.322-3.612-2.07-7.049-2.07-3,0-3.214.441-3.214,3.437v10.265c.66.045,1.1.045,1.806.045,2.818,0,4.493-.573,5.375-1.235a5.042,5.042,0,0,0,2.025-3.348c.089-.441.134-.484.53-.484s.441.043.441.484c-.045,1.542-.045,3.612-.045,5.2,0,1.629,0,3.833.045,5.464,0,.4-.045.439-.441.439s-.441-.043-.53-.439a6.221,6.221,0,0,0-2.07-3.746c-.837-.705-2.554-1.144-5.33-1.144-.705,0-1.146,0-1.806.043Z" transform="translate(-282.864 -316.577)" fill="#fff"/>
      <path id="パス_505" data-name="パス 505" d="M315.965,338.488c-1.41-.087-3.348-.132-5.154-.132-1.763,0-3.35.045-5.156.132l-.528,1.5c-1.19,3.348-1.631,5.243-1.631,6.476,0,2.07.969,3.041,4.053,3.437.441.043.484.089.484.441,0,.307-.043.353-.484.353-1.806-.089-4.053-.132-5.639-.132-1.5,0-3.128.043-4.8.132-.4,0-.441-.045-.441-.353,0-.353.043-.4.441-.441a4.845,4.845,0,0,0,3.084-2.113c.924-1.278,1.674-3.041,3.392-8.02l4.053-11.587c1.322-3.833,2.291-6.74,3.041-9.339l4.008-1.895a.514.514,0,0,1,.528.439c1.06,3.13,2.115,6.169,3.789,11.059l5.9,17.448c1.189,3.48,1.41,3.7,4.229,4.008.4.043.441.089.441.441,0,.307-.045.353-.441.353-2.07-.089-3.919-.132-6.74-.132-2.688,0-5.022.043-7.094.132-.4,0-.439-.045-.439-.4s.043-.4.439-.4c3.13-.089,3.614-.794,3.614-1.585a7.507,7.507,0,0,0-.53-2.423Zm-3.437-10.133c-.705-2.07-1.1-3.435-1.717-5.462-.616,2.115-1.146,3.787-1.763,5.55l-2.952,8.548c1.454.087,3.173.087,4.715.087s3.392,0,4.624-.087Z" transform="translate(-269.482 -316.945)" fill="#fff"/>
      <path id="パス_506" data-name="パス 506" d="M323.61,345.544c0,3.084.221,3.787,4.185,4.008.441.043.487.089.487.441,0,.307-.045.353-.487.353-2.07-.089-4.845-.132-7.268-.132-2.381,0-5.245.043-7.14.132-.4,0-.439-.045-.439-.353,0-.4.043-.441.4-.441,3.655-.221,4.185-.924,4.185-4.053V322.193c0-3.13-.486-3.789-4.451-4.053-.4-.043-.439-.089-.439-.4,0-.353.043-.4.439-.4,2.072.089,5.022.132,7.447.132,2.466,0,4.493-.175,6.476-.175,9.471,0,13.086,3.171,13.086,8.239,0,3.435-2.468,6.255-7.27,7.49l6.519,12.6c1.806,3.482,2.159,3.657,4.67,3.965.266.045.309.089.309.441,0,.264-.043.309-.309.309-1.981-.089-4.008-.132-5.375-.132s-2.6,0-4.053.043c-.705-1.717-1.276-3-2.113-4.67L326.74,334h-1.453c-.441,0-1.014,0-1.676-.045Zm0-12.733a10.48,10.48,0,0,0,1.983.132c5.375,0,7.8-2.556,7.8-7.181,0-5.2-2.027-7.315-7.224-7.315-2.115,0-2.556.484-2.556,3.569Z" transform="translate(-253.993 -316.598)" fill="#fff"/>
      <path id="パス_507" data-name="パス 507" d="M340.6,322.127c0-3-.221-3.48-2.2-3.48a7.173,7.173,0,0,0-5.332,2.115,13.727,13.727,0,0,0-3.658,5.814c-.089.221-.175.354-.353.354-.4,0-.616-.134-.616-.485.4-2.511.926-6.83,1.146-9.121,4.888.089,9.6.132,14.1.132,4.581,0,9.428-.043,14.362-.132.266,2.291.794,6.61,1.1,9.121,0,.351-.219.485-.617.485-.175,0-.264-.134-.353-.354a13.709,13.709,0,0,0-3.655-5.814,7.579,7.579,0,0,0-5.509-2.115c-2.027,0-2.245.484-2.245,3.48v23.4c0,3.084.4,3.787,4.493,4.008.4.043.441.089.441.441,0,.307-.043.353-.441.353-1.849-.089-5.286-.132-7.577-.132-2.379,0-5.507.043-7.181.132-.4,0-.441-.045-.441-.353,0-.353.043-.4.441-.441,3.435-.221,4.1-.924,4.1-4.008Z" transform="translate(-238.679 -316.577)" fill="#fff"/>
      <path id="パス_508" data-name="パス 508" d="M355.293,345.478c0,3.13.177,3.833,4.319,4.053.4,0,.439.043.439.4s-.043.4-.439.4c-2.115-.089-4.936-.132-7.358-.132-2.379,0-5.243.043-7.181.132-.352,0-.4-.045-.4-.353,0-.4.043-.441.4-.441,3.569-.221,4.053-.924,4.053-4.053V322.172c0-3.13-.221-3.789-4.185-4.053-.4-.043-.441-.089-.441-.4,0-.353.043-.4.441-.4,2.07.089,4.89.132,7.313.132,2.468,0,5.288-.043,7.226-.132.4,0,.441.043.441.4,0,.309-.045.354-.441.4-3.7.219-4.187.924-4.187,4.053v10c2.734.132,5.245.132,7.535.132s4.67,0,7.358-.132v-10c0-3.13-.221-3.789-4.231-4.053-.353-.043-.4-.089-.4-.4,0-.353.043-.4.441-.4,2.07.089,4.758.132,7.179.132,2.468,0,5.42-.043,7.358-.132.4,0,.441.043.441.4,0,.309-.043.354-.441.4-3.7.219-4.185.924-4.185,4.053v23.306c0,3.13.177,3.833,4.274,4.053.441.043.484.089.484.441,0,.307-.043.353-.484.353-2.07-.089-5.022-.132-7.447-.132s-5.109.043-7,.132c-.4,0-.441-.045-.441-.353,0-.353.045-.4.441-.441,3.523-.221,4.01-.924,4.01-4.053V333.845c-2.688-.175-5.068-.175-7.358-.175s-4.8,0-7.535.175Z" transform="translate(-223.106 -316.577)" fill="#fff"/>
      <path id="パス_509" data-name="パス 509" d="M369.208,324.285c0-4.053,3.569-6.96,8.15-6.96,4.979,0,8.063,2.556,8.063,5.948,0,3.569-2.424,5.727-8.284,6.96,2.775,4.1,6.214,8.989,9.385,12.91,1.058-1.456,1.674-3.7,1.674-7.094,0-1.453-.88-3.128-3.921-3.525-.264-.043-.307-.087-.307-.4s.043-.353.307-.353c1.542.089,3.261.132,4.89.132s3.348-.043,4.89-.132c.309,0,.352.045.352.353s-.043.352-.352.4c-2.379.353-3.744,1.719-4.361,4.89a16.135,16.135,0,0,1-2.513,6.521c2.952,3.657,3.7,4.449,4.142,4.758a5.266,5.266,0,0,0,2.907.88c.354.045.4.089.4.4s-.043.353-.4.353c-1.629-.045-3.3-.132-4.449-.132-1.365,0-3,0-4.361.043-.662-1.012-1.146-1.806-1.94-2.864a12.176,12.176,0,0,1-8.944,3.744,10.288,10.288,0,0,1-10.529-10.177c0-4.449,2.29-7.094,7.888-9.605C370.089,328.691,369.208,326.533,369.208,324.285Zm0,14.1c0,5.55,4.713,10.263,8.812,10.263a6.469,6.469,0,0,0,4.8-1.981c-3.656-4.713-7.27-9.824-10.441-14.671C370.266,333.274,369.208,335.169,369.208,338.385Zm11.366-15.244c0-3.393-1.408-4.979-3.171-4.979-1.895,0-3.35,1.5-3.35,4.538,0,2.291.794,4.274,2.645,6.874C379.167,328.6,380.575,326.533,380.575,323.141Z" transform="translate(-204.191 -316.577)" fill="#fff"/>
      <path id="パス_510" data-name="パス 510" d="M413.327,334c0,10.309-7.488,17.49-16.257,17.49S380.9,344.7,380.9,334.391s7.536-17.446,16.259-17.446S413.327,323.685,413.327,334Zm-24.98.219c0,10.838,3.392,16.259,8.768,16.259s8.766-5.42,8.766-16.259-3.437-16.257-8.766-16.257S388.347,323.376,388.347,334.214Z" transform="translate(-187.815 -316.945)" fill="#fff"/>
      <path id="パス_511" data-name="パス 511" d="M403.685,322.266l.175,17.182c.045,3.919.177,6.564,1.146,8.1.705,1.146,1.938,1.763,3.878,1.983.439.043.484.089.484.441,0,.307-.045.353-.484.353-1.94-.089-4.1-.132-5.859-.132s-3.7.043-5.463.132c-.4,0-.441-.045-.441-.353,0-.353.045-.4.441-.441a4.1,4.1,0,0,0,3.173-1.938c.967-1.631,1.233-4.319,1.276-8.15l.221-17.271v-1.1c0-1.587-.926-2.734-4.317-2.952-.4-.043-.441-.089-.441-.4,0-.353.043-.439.441-.4,1.542.089,4.185.177,5.507.177,1.453,0,3.216,0,5.329-.045,1.014,1.763,2.072,3.657,3.262,5.55l9.385,14.716c1.233,1.981,2.245,3.7,3.3,5.42l-.045-4.979v-9.649c0-4.319-.175-7.138-1.322-8.634a5.127,5.127,0,0,0-3.746-1.763c-.4-.043-.439-.089-.439-.4,0-.353.043-.439.439-.4,1.542.089,4.1.177,5.727.177,1.719,0,3.967-.089,5.42-.177.4,0,.441.043.441.353s-.045.4-.441.441a4.024,4.024,0,0,0-2.82,1.674c-1.1,1.585-1.542,4.493-1.585,8.723l-.177,13.7c-.043,3.128,0,4.979.045,7.49l-3.3,1.408c-.264,0-.4-.043-.485-.175-1.278-2.247-2.6-4.449-4.626-7.622l-13.568-21.058Z" transform="translate(-172.088 -316.582)" fill="#fff"/>
      <path id="パス_512" data-name="パス 512" d="M425.473,345.523c0,3,.264,3.48,4.361,3.48a12.422,12.422,0,0,0,7.315-2.511,15.563,15.563,0,0,0,4.317-5.509c.132-.264.221-.351.441-.351a.5.5,0,0,1,.53.482,86.517,86.517,0,0,1-2.379,9.21c-3.789-.089-8.548-.132-12.162-.132-4.317,0-9.03.043-12.82.132-.441,0-.485-.045-.485-.353,0-.353.043-.4.485-.441,3.569-.221,4.229-.924,4.229-4.053V322.215c0-3.173-.484-3.833-4.449-4.1-.4-.043-.439-.089-.439-.4,0-.353.041-.4.439-.4,3.746.089,8.282.132,12.38.132,4.008,0,8.371-.043,12.071-.132.264,2.291.794,6.389,1.1,8.68,0,.353-.221.484-.616.484-.175,0-.264-.132-.352-.353a12.333,12.333,0,0,0-3.7-5.42c-1.542-1.322-3.612-2.07-7.049-2.07-3,0-3.216.441-3.216,3.437v10.265c.662.045,1.1.045,1.806.045,2.82,0,4.495-.573,5.375-1.235a5.037,5.037,0,0,0,2.027-3.348c.089-.441.132-.484.53-.484s.439.043.439.484c-.043,1.542-.043,3.612-.043,5.2,0,1.629,0,3.833.043,5.464,0,.4-.043.439-.439.439s-.441-.043-.53-.439a6.222,6.222,0,0,0-2.07-3.746c-.837-.705-2.556-1.144-5.332-1.144-.705,0-1.144,0-1.806.043Z" transform="translate(-155.32 -316.577)" fill="#fff"/>
    </g>
    <g id="グループ_248" data-name="グループ 248" transform="translate(284.209 367.663)">
      <path id="パス_513" data-name="パス 513" d="M291.313,351.368c-.567-.035-1.347-.055-2.074-.055-.709,0-1.347.02-2.074.055l-.213.6a8.814,8.814,0,0,0-.656,2.608c0,.833.39,1.223,1.631,1.383.177.018.2.035.2.177,0,.124-.018.142-.2.142-.727-.035-1.631-.053-2.269-.053-.6,0-1.261.018-1.934.053-.16,0-.177-.018-.177-.142,0-.142.018-.16.177-.177a1.949,1.949,0,0,0,1.243-.851,12.905,12.905,0,0,0,1.363-3.228l1.633-4.662c.532-1.544.922-2.714,1.223-3.76l1.613-.762a.207.207,0,0,1,.213.177c.425,1.258.853,2.482,1.526,4.451l2.375,7.021c.479,1.4.567,1.489,1.7,1.613.16.018.177.035.177.177,0,.124-.018.142-.177.142-.833-.035-1.578-.053-2.712-.053-1.081,0-2.023.018-2.856.053-.16,0-.177-.018-.177-.16s.018-.159.177-.159c1.26-.035,1.456-.319,1.456-.638a3.029,3.029,0,0,0-.215-.975Zm-1.383-4.079c-.284-.835-.443-1.383-.691-2.2-.248.851-.461,1.525-.709,2.233l-1.188,3.439c.585.037,1.276.037,1.9.037s1.365,0,1.861-.037Z" transform="translate(-283.547 -342.696)" fill="#fff"/>
      <path id="パス_514" data-name="パス 514" d="M305.992,354.206c0,1.241.089,1.524,1.684,1.613.177.018.195.035.195.177,0,.124-.018.142-.195.142-.833-.035-1.95-.053-2.927-.053-.957,0-2.109.018-2.872.053-.16,0-.177-.018-.177-.142,0-.16.018-.177.16-.177,1.471-.089,1.684-.372,1.684-1.631v-9.381c0-1.258-.195-1.524-1.79-1.631-.159-.018-.177-.035-.177-.16,0-.142.018-.159.177-.159.833.035,2.021.053,3,.053.993,0,1.81-.071,2.608-.071,3.811,0,5.267,1.276,5.267,3.315,0,1.385-.993,2.519-2.927,3.015l2.625,5.072c.727,1.4.869,1.471,1.879,1.6.106.018.124.035.124.177,0,.106-.018.124-.124.124-.8-.035-1.613-.053-2.163-.053s-1.048,0-1.631.018c-.284-.691-.516-1.205-.853-1.879l-2.3-4.664h-.585c-.177,0-.408,0-.674-.018Zm0-5.125a4.2,4.2,0,0,0,.8.053c2.163,0,3.137-1.028,3.137-2.889,0-2.094-.815-2.944-2.907-2.944-.851,0-1.028.195-1.028,1.436Z" transform="translate(-266.067 -342.556)" fill="#fff"/>
      <path id="パス_515" data-name="パス 515" d="M329.792,346.686c0,.142-.089.2-.248.2-.071,0-.106-.053-.142-.142a8.057,8.057,0,0,0-1.613-2.608,2.807,2.807,0,0,0-2-1.01c-2.218,0-3.778,2.182-3.778,6.525,0,3.955,1.808,6.171,4.095,6.171,1.438,0,2.608-.638,3.512-2.714a.179.179,0,0,1,.177-.1c.142,0,.266.089.266.177,0,.035,0,.035-.035.124-.886,2.251-2.34,3.3-4.487,3.3-3.651,0-6.523-2.73-6.523-6.88a6.787,6.787,0,0,1,6.773-7.021,6.413,6.413,0,0,1,1.524.195,5.116,5.116,0,0,0,1.1.2,6.4,6.4,0,0,0,.957-.089C329.473,344.061,329.686,345.763,329.792,346.686Z" transform="translate(-249.161 -342.696)" fill="#fff"/>
      <path id="パス_516" data-name="パス 516" d="M340.259,354.18c0,1.259.071,1.542,1.737,1.631.159,0,.177.018.177.159s-.018.16-.177.16c-.851-.035-1.985-.053-2.96-.053-.957,0-2.111.018-2.891.053-.142,0-.16-.018-.16-.142,0-.159.018-.177.16-.177,1.436-.089,1.631-.372,1.631-1.631V344.8c0-1.258-.089-1.524-1.684-1.631-.16-.018-.177-.035-.177-.16,0-.142.018-.159.177-.159.833.035,1.968.053,2.944.053.993,0,2.127-.018,2.907-.053.16,0,.177.018.177.159,0,.124-.018.142-.177.16-1.489.089-1.684.372-1.684,1.631v4.026c1.1.053,2.109.053,3.031.053s1.881,0,2.962-.053V344.8c0-1.258-.089-1.524-1.7-1.631-.14-.018-.16-.035-.16-.16,0-.142.02-.159.179-.159.831.035,1.914.053,2.889.053.993,0,2.18-.018,2.96-.053.16,0,.179.018.179.159,0,.124-.02.142-.179.16-1.489.089-1.684.372-1.684,1.631v9.381c0,1.259.071,1.542,1.719,1.631.177.018.2.035.2.177,0,.124-.02.142-.2.142-.833-.035-2.021-.053-3-.053s-2.058.018-2.818.053c-.159,0-.179-.018-.179-.142,0-.142.02-.159.179-.177,1.418-.089,1.613-.372,1.613-1.631V349.5c-1.081-.071-2.04-.071-2.962-.071s-1.932,0-3.031.071Z" transform="translate(-232.775 -342.548)" fill="#fff"/>
      <path id="パス_517" data-name="パス 517" d="M359.172,354.18c0,1.259.071,1.542,1.757,1.631.16,0,.175.018.175.177,0,.124-.016.142-.175.142-.853-.035-2.04-.053-3.015-.053-.957,0-2.092.018-2.854.053-.161,0-.177-.018-.177-.142,0-.159.016-.177.16-.177,1.453-.089,1.649-.372,1.649-1.631V344.8c0-1.258-.089-1.524-1.7-1.631-.16-.018-.175-.035-.175-.16,0-.142.016-.159.175-.159.835.035,1.952.053,2.927.053.993,0,2.18-.018,2.962-.053.158,0,.175.018.175.159,0,.124-.018.142-.175.16-1.509.089-1.7.372-1.7,1.631Z" transform="translate(-214.454 -342.548)" fill="#fff"/>
      <path id="パス_518" data-name="パス 518" d="M374.266,344.783c0-1.207-.089-1.4-.886-1.4a2.885,2.885,0,0,0-2.145.851,5.53,5.53,0,0,0-1.471,2.342c-.035.089-.071.142-.142.142-.161,0-.248-.053-.248-.2.159-1.01.37-2.75.459-3.671,1.969.035,3.866.053,5.674.053,1.845,0,3.8-.018,5.781-.053.108.922.319,2.661.443,3.671,0,.142-.087.2-.248.2-.071,0-.106-.053-.142-.142a5.526,5.526,0,0,0-1.471-2.342,3.047,3.047,0,0,0-2.216-.851c-.815,0-.9.195-.9,1.4V354.2c0,1.241.16,1.525,1.808,1.613.16.018.177.035.177.177,0,.124-.018.142-.177.142-.744-.035-2.127-.053-3.051-.053-.957,0-2.216.018-2.889.053-.16,0-.177-.018-.177-.142,0-.142.018-.159.177-.177,1.383-.089,1.648-.372,1.648-1.613Z" transform="translate(-200.335 -342.548)" fill="#fff"/>
      <path id="パス_519" data-name="パス 519" d="M391.47,354.2c0,1.205.106,1.4,1.757,1.4a5,5,0,0,0,2.943-1.01,6.227,6.227,0,0,0,1.737-2.216c.055-.108.091-.142.179-.142a.2.2,0,0,1,.213.193,34.408,34.408,0,0,1-.959,3.707c-1.525-.035-3.439-.053-4.892-.053-1.737,0-3.636.018-5.16.053-.177,0-.2-.018-.2-.142,0-.142.018-.159.2-.177,1.436-.089,1.7-.372,1.7-1.631v-9.361c0-1.278-.195-1.544-1.79-1.65-.16-.018-.177-.035-.177-.16,0-.142.018-.159.177-.159,1.507.035,3.332.053,4.983.053,1.613,0,3.368-.018,4.857-.053.106.922.321,2.572.445,3.494,0,.142-.089.195-.248.195-.073,0-.108-.053-.144-.142a4.963,4.963,0,0,0-1.489-2.182,4.074,4.074,0,0,0-2.838-.833c-1.2,0-1.294.177-1.294,1.383V348.9c.268.018.443.018.727.018a3.665,3.665,0,0,0,2.165-.5,2.027,2.027,0,0,0,.815-1.347c.036-.177.053-.2.213-.2s.177.018.177.2c-.018.62-.018,1.454-.018,2.092,0,.656,0,1.542.018,2.2,0,.16-.018.177-.177.177s-.177-.018-.213-.177a2.505,2.505,0,0,0-.833-1.507,3.522,3.522,0,0,0-2.147-.461c-.284,0-.459,0-.727.018Z" transform="translate(-183.225 -342.548)" fill="#fff"/>
      <path id="パス_520" data-name="パス 520" d="M414.981,346.686c0,.142-.091.2-.25.2-.069,0-.1-.053-.14-.142a8.064,8.064,0,0,0-1.615-2.608,2.807,2.807,0,0,0-2-1.01c-2.216,0-3.778,2.182-3.778,6.525,0,3.955,1.81,6.171,4.1,6.171,1.436,0,2.608-.638,3.51-2.714a.182.182,0,0,1,.179-.1c.142,0,.266.089.266.177,0,.035,0,.035-.035.124-.888,2.251-2.342,3.3-4.487,3.3-3.653,0-6.525-2.73-6.525-6.88a6.787,6.787,0,0,1,6.773-7.021,6.4,6.4,0,0,1,1.524.195,5.119,5.119,0,0,0,1.1.2,6.454,6.454,0,0,0,.959-.089C414.662,344.061,414.875,345.763,414.981,346.686Z" transform="translate(-166.57 -342.696)" fill="#fff"/>
      <path id="パス_521" data-name="パス 521" d="M426.146,344.783c0-1.207-.089-1.4-.886-1.4a2.889,2.889,0,0,0-2.145.851,5.547,5.547,0,0,0-1.471,2.342c-.035.089-.071.142-.142.142-.159,0-.248-.053-.248-.2.159-1.01.372-2.75.461-3.671,1.968.035,3.864.053,5.674.053,1.844,0,3.793-.018,5.781-.053.1.922.319,2.661.441,3.671,0,.142-.089.2-.248.2-.069,0-.1-.053-.14-.142a5.544,5.544,0,0,0-1.471-2.342,3.052,3.052,0,0,0-2.218-.851c-.815,0-.9.195-.9,1.4V354.2c0,1.241.16,1.525,1.808,1.613.16.018.179.035.179.177,0,.124-.02.142-.179.142-.744-.035-2.127-.053-3.049-.053-.957,0-2.218.018-2.891.053-.159,0-.175-.018-.175-.142,0-.142.016-.159.175-.177,1.385-.089,1.649-.372,1.649-1.613Z" transform="translate(-150.035 -342.548)" fill="#fff"/>
    </g>
  </g>
</svg>
