<?xml version="1.0" encoding="utf-8"?>
<!-- Generator: Adobe Illustrator 25.2.0, SVG Export Plug-In . SVG Version: 6.00 Build 0)  -->
<svg version="1.1" id="レイヤー_1" xmlns="http://www.w3.org/2000/svg" xmlns:xlink="http://www.w3.org/1999/xlink" x="0px"
	 y="0px" viewBox="0 0 287.1 64.6" style="enable-background:new 0 0 287.1 64.6;" xml:space="preserve">
<style type="text/css">
	.st0{fill:#FFFFFF;}
</style>
<g id="グループ_301" transform="translate(-283.445 -658.93)">
	<g id="グループ_299" transform="translate(283.445 658.93)">
		<path id="パス_593" class="st0" d="M43.6,25.5c0,7,2.6,9.8,5.9,9.8c2.5,0,4.9-1.4,6-3.7c0.1-0.2,0.2-0.3,0.4-0.3
			c0.3,0,0.6,0.3,0.6,0.5c-1.7,3.2-5.1,5.1-8.7,5.1c-6,0-10.8-4.8-10.8-10.7c0-0.2,0-0.4,0-0.5c-0.2-6.1,4.6-11.2,10.7-11.5
			c4.9,0,8.9,3.8,9.1,8.7c0,0.5,0,0.7-0.2,0.9c-0.1,0.2-0.4,0.3-0.6,0.3c-2.3,0-5-0.1-7.1-0.1c-2.1,0-3.3,0-5.2,0.1
			C43.6,24.5,43.6,25,43.6,25.5z M47,22.8c1.1,0,1.9,0,3.4-0.2c0.4,0,0.4-0.2,0.4-0.8c0-4.5-1.1-6.8-3.2-6.8c-2.2,0-3.6,2.3-3.9,7.8
			C45.1,22.8,46,22.8,47,22.8L47,22.8z"/>
		<path id="パス_594" class="st0" d="M77.8,31.5c0,3.1,0.5,3.8,1.6,3.8c0.7,0,1.3-0.4,1.7-0.9c0.1-0.1,0.1-0.1,0.2-0.1
			c0.2,0,0.4,0.2,0.4,0.4c0,0,0,0,0,0c-1.2,1.4-3,2.1-4.8,1.9c-2.6,0-3.9-0.9-4.5-2.5C71,36,68.7,37,66.4,36.9
			c-1.7,0.1-3.4-0.3-4.8-1.2c-1.1-0.9-1.8-2.3-1.7-3.8c-0.1-1.6,0.6-3.2,1.8-4.3c1.2-1,2.1-1.6,6.3-2.4c1.4-0.1,2.6-0.6,3.6-1.6
			c0.5-0.4,0.8-1.1,0.8-1.8v-1.5c0-4.3-1.1-5.3-3.9-5.3c-1.5,0-3.1,1-3.1,2c0,0.3,0.1,0.7,0.4,0.9c0.5,0.5,0.9,1.2,0.9,2
			c0,1.5-1.1,2.7-2.6,2.8c-0.1,0-0.2,0-0.3,0c-1.5,0.1-2.8-1-2.9-2.5c0-0.1,0-0.2,0-0.3c0-2.7,3.7-5.7,9.5-5.7c5.5,0,7.7,2,7.6,6.8
			L77.8,31.5z M72.3,23.9c-0.4,0.8-1.2,1.4-3.5,2.1c-2.1,0.7-3,2.3-3,5.2c0,2.8,1.3,4.1,2.9,4.1c2.1-0.1,3.7-1.9,3.6-4
			c0-0.1,0-0.2,0-0.2L72.3,23.9z"/>
		<path id="パス_595" class="st0" d="M92.2,18.8c1.2-3.3,3.2-4.7,5.9-4.7c1.9-0.2,3.5,1.2,3.7,3c0,0.1,0,0.1,0,0.2
			c0.1,1.5-1,2.9-2.5,3.1c-0.1,0-0.3,0-0.4,0c-1.4,0.1-2.5-1-2.6-2.3c0-0.1,0-0.1,0-0.2c0-0.3,0.1-0.7,0.3-1
			c0.1-0.2,0.2-0.4,0.2-0.6c0-0.5-0.2-0.7-0.7-0.7c-0.9,0-2.4,1.5-3.1,3.6c-0.5,1.3-0.8,2.8-0.8,4.2v8.9c0,2.5,0,3,3.3,3.2
			c0.3,0,0.4,0.1,0.4,0.4c0,0.3,0,0.4-0.4,0.4c-1.8-0.1-4.1-0.1-6.1-0.1c-2,0-3.9,0-5.7,0.1c-0.4,0-0.4,0-0.4-0.4
			c0-0.3,0-0.4,0.4-0.4c2.8-0.2,2.9-0.6,2.9-3.2V18.1c0-1.2-0.7-1.8-1.5-1.8l-1.9,0c-0.4,0-0.4,0-0.4-0.4s0-0.4,0.4-0.4
			c2-0.2,6.5-1,8.6-1.5c0.4,0,0.6,0.1,0.6,0.4L92.2,18.8z"/>
		<path id="パス_596" class="st0" d="M104.2,16.2c-0.4,0-0.4,0-0.4-0.4c0-0.4,0-0.4,0.5-0.5c1.7-0.2,3.3-0.9,4.6-2
			c1.2-1,2.1-2.2,2.8-3.5c0.2-0.4,0.3-0.4,0.7-0.4c0.5,0,0.6,0.1,0.6,0.4l-0.1,5.2c1.6,0,3.3,0,5.4-0.2c0.2,0,0.3,0.1,0.3,0.3
			l-0.3,1c-0.1,0.2-0.2,0.3-0.4,0.3c-1.9-0.2-3.4-0.3-5.1-0.3l-0.1,13.7c-0.2,1.5,0.1,3.1,0.7,4.5c0.5,0.6,1.3,0.9,2.1,0.9
			c1.1,0,2-0.6,2.7-1.4c0.1-0.1,0.2-0.1,0.3-0.1c0.3,0,0.4,0.2,0.4,0.5c-1.3,1.7-3.4,2.7-5.5,2.7c-1.8,0.2-3.6-0.4-5-1.6
			c-1.1-1.1-1.5-2.6-1.5-5.1c0-2.2,0-4.3,0.1-6.6l0.1-7.3L104.2,16.2z"/>
		<path id="パス_597" class="st0" d="M129.2,17.9c1.2-2.4,3.7-3.9,6.4-3.8c1.9-0.1,3.8,0.6,5.3,1.8c1.4,1.3,2.1,3.2,2,5.1
			c0,1.7,0,3.9,0,4.9v6.3c0,2.6,0,3,3,3.2c0.3,0,0.4,0.1,0.4,0.4c0,0.3,0,0.4-0.4,0.4C144,36,142.2,36,140,36c-2.2,0-3.7,0-5.5,0.1
			c-0.4,0-0.4,0-0.4-0.4c0-0.3,0-0.4,0.4-0.4c2.6-0.2,2.6-0.6,2.6-3.2V21.5c0-2.8-0.3-3.9-0.8-4.6c-0.6-0.8-1.6-1.3-2.7-1.2
			c-1.6,0.2-3,1.2-3.7,2.7c-0.5,1.1-0.8,2.4-0.7,3.6v10.2c0,2.6,0,3,2.8,3.2c0.3,0,0.4,0.1,0.4,0.4c0,0.3,0,0.4-0.4,0.4
			c-1.8-0.1-3.7-0.1-5.7-0.1c-2,0-3.9,0-5.5,0.1c-0.3,0-0.4,0-0.4-0.4c0-0.3,0-0.4,0.4-0.4c2.8-0.2,2.8-0.6,2.8-3.2V5.4
			c0-1.2-0.6-1.8-1.5-1.8l-2,0.1c-0.3,0-0.3,0-0.3-0.4s0-0.4,0.3-0.4c2.3-0.3,6.1-0.9,8.7-1.5c0.4,0,0.5,0.2,0.5,0.5l-0.1,8.7
			L129.2,17.9z"/>
		<path id="パス_598" class="st0" d="M153.7,9.9c0-4.1,3.6-7,8.2-7c5,0,8.1,2.6,8.1,6c0,3.6-2.4,5.8-8.3,7c2.8,4.1,6.3,9,9.5,13
			c1.3-2.1,1.9-4.6,1.7-7.1c0-1.5-0.9-3.2-3.9-3.5c-0.3,0-0.3-0.1-0.3-0.4c0-0.3,0-0.4,0.3-0.4c1.6,0.1,3.3,0.1,4.9,0.1
			s3.4,0,4.9-0.1c0.3,0,0.4,0,0.4,0.4c0,0.3,0,0.4-0.4,0.4c-2.4,0.4-3.8,1.7-4.4,4.9c-0.4,2.3-1.2,4.6-2.5,6.6
			c1.2,1.7,2.6,3.3,4.2,4.8c0.9,0.6,1.9,0.9,2.9,0.9c0.4,0,0.4,0.1,0.4,0.4c0,0.3,0,0.4-0.4,0.4c-1.6,0-3.3-0.1-4.5-0.1
			c-1.4,0-3,0-4.4,0c-0.7-1-1.2-1.8-2-2.9c-2.4,2.4-5.6,3.8-9,3.8c-5.7,0.1-10.5-4.4-10.6-10.1c0,0,0-0.1,0-0.1
			c0-4.5,2.3-7.1,7.9-9.7C154.8,15,153.9,12.5,153.7,9.9z M153.7,24.1c0,5.6,4.8,10.3,8.9,10.3c1.8,0,3.6-0.7,4.8-2
			c-3.7-4.8-7.3-9.9-10.5-14.8C154.8,19,153.7,20.9,153.7,24.1L153.7,24.1z M165.2,8.8c0-3.4-1.4-5-3.2-5c-1.9,0-3.4,1.5-3.4,4.6
			c0.1,2.5,1,5,2.7,6.9C163.8,14.3,165.2,12.2,165.2,8.8L165.2,8.8z"/>
		<path id="パス_599" class="st0" d="M203.1,25.3c0.1,6.2-4.8,11.4-11.1,11.5c-6.1,0-10.9-4.9-10.9-11c0-0.1,0-0.2,0-0.3
			c-0.1-6.2,4.8-11.4,11-11.5c6.1,0,11,4.9,11,11C203.1,25.2,203.1,25.3,203.1,25.3z M187.7,25.5c0,7.3,1.2,10.5,4.4,10.5
			s4.4-3.2,4.4-10.5S195.2,15,192,15C188.9,15,187.7,18.2,187.7,25.5z"/>
		<path id="パス_600" class="st0" d="M213.3,17.9c1.2-2.4,3.7-3.9,6.3-3.8c1.9-0.1,3.8,0.6,5.3,1.8c1.4,1.3,2.1,3.2,2,5.1
			c0,1.7,0,3.9,0,4.9v6.3c0,2.6,0,3,3,3.2c0.3,0,0.4,0.1,0.4,0.4c0,0.3,0,0.4-0.4,0.4c-1.9-0.1-3.7-0.1-5.8-0.1
			c-2.2,0-3.6,0-5.5,0.1c-0.4,0-0.4,0-0.4-0.4c0-0.3,0-0.4,0.4-0.4c2.5-0.2,2.5-0.6,2.5-3.2V21.5c0-2.8-0.3-3.9-0.8-4.6
			c-0.6-0.8-1.6-1.3-2.6-1.2c-1.6,0.2-3,1.2-3.6,2.7c-0.5,1.1-0.8,2.4-0.7,3.6v10.2c0,2.6,0,3,2.7,3.2c0.3,0,0.4,0.1,0.4,0.4
			c0,0.3,0,0.4-0.4,0.4c-1.8-0.1-3.5-0.1-5.6-0.1c-2.1,0-3.7,0-5.6,0.1c-0.3,0-0.4,0-0.4-0.4c0-0.3,0-0.4,0.4-0.4
			c2.8-0.2,2.8-0.6,2.8-3.2V18c0-1.2-0.6-1.7-1.5-1.7l-1.9,0c-0.4,0-0.4,0-0.4-0.4s0-0.4,0.4-0.4c2.7-0.3,6.2-0.9,8.6-1.5
			c0.4,0,0.5,0.1,0.5,0.4L213.3,17.9z"/>
		<path id="パス_601" class="st0" d="M237.7,25.5c0,7,2.6,9.8,5.9,9.8c2.5,0,4.9-1.4,6-3.7c0.1-0.2,0.2-0.3,0.4-0.3
			c0.3,0,0.6,0.3,0.6,0.5c-1.7,3.2-5.1,5.1-8.7,5.1c-6,0-10.8-4.8-10.8-10.7c0-0.2,0-0.4,0-0.5c-0.2-6.1,4.6-11.2,10.7-11.5
			c4.9,0,8.9,3.8,9.1,8.7c0,0.5,0,0.7-0.2,0.9c-0.2,0.2-0.4,0.3-0.6,0.3c-2.3,0-5-0.1-7.1-0.1c-2.1,0-3.3,0-5.2,0.1
			C237.7,24.5,237.7,25,237.7,25.5z M241.1,22.8c1.1,0,1.9,0,3.4-0.2c0.4,0,0.4-0.2,0.4-0.8c0-4.5-1.1-6.8-3.2-6.8
			c-2.2,0-3.6,2.3-3.9,7.8C239.3,22.8,240.1,22.8,241.1,22.8z"/>
	</g>
	<g id="グループ_300" transform="translate(285.818 689.224)">
		<path id="パス_602" class="st0" d="M45.6,29.7c0,1.2,0.2,1.5,0.6,1.5c0.3,0,0.5-0.1,0.7-0.4c0,0,0.1,0,0.1,0
			c0.1,0,0.1,0.1,0.1,0.2c-0.5,0.6-1.2,0.8-1.9,0.8c-1,0-1.6-0.4-1.8-1c-0.6,0.8-1.5,1.2-2.5,1.1c-0.7,0.1-1.4-0.1-1.9-0.5
			c-0.5-0.4-0.7-0.9-0.7-1.5c0-0.7,0.2-1.3,0.7-1.7c0.7-0.6,1.6-0.9,2.5-0.9c0.5,0,1.1-0.3,1.5-0.6c0.2-0.2,0.3-0.4,0.3-0.7v-0.6
			c0-1.7-0.4-2.1-1.6-2.1c-0.6,0-1.2,0.4-1.2,0.8c0,0.1,0,0.3,0.2,0.4c0.2,0.2,0.3,0.5,0.4,0.8c0,0.6-0.4,1.1-1,1.1c0,0-0.1,0-0.1,0
			c-0.6,0-1.1-0.4-1.2-1c0,0,0-0.1,0-0.1c0-1.1,1.5-2.3,3.8-2.3c2.2,0,3.1,0.8,3.1,2.8L45.6,29.7z M43.3,26.6
			c-0.2,0.3-0.5,0.6-1.4,0.9c-0.9,0.3-1.2,0.9-1.2,2.1c0,1.1,0.5,1.7,1.2,1.7c0.8,0,1.5-0.8,1.5-1.6c0,0,0-0.1,0-0.1L43.3,26.6z"/>
		<path id="パス_603" class="st0" d="M67.8,24.6c0.2-1.1,1.2-1.9,2.4-1.9c0.7-0.1,1.4,0.5,1.5,1.2c0,0,0,0,0,0.1
			c0.1,0.6-0.4,1.2-1,1.2c-0.1,0-0.1,0-0.2,0c-0.5,0-1-0.4-1.1-0.9c0,0,0-0.1,0-0.1c0-0.1,0-0.3,0.1-0.4c0.1-0.1,0.1-0.1,0.1-0.2
			c0-0.2-0.1-0.3-0.3-0.3c-0.4,0-0.9,0.6-1.2,1.4c-0.2,0.5-0.3,1.1-0.3,1.7V30c0,1,0,1.2,1.3,1.3c0.1,0,0.1,0,0.1,0.2s0,0.1-0.1,0.1
			c-0.7,0-1.7-0.1-2.5-0.1c-0.8,0-1.6,0-2.3,0.1c-0.1,0-0.2,0-0.2-0.1s0-0.1,0.2-0.2c1.1-0.1,1.2-0.2,1.2-1.3v-5.7
			c0-0.5-0.3-0.7-0.6-0.7l-0.8,0c-0.1,0-0.2,0-0.2-0.1c0-0.1,0-0.1,0.2-0.2c0.8-0.1,2.6-0.4,3.4-0.6c0.1,0,0.2,0.1,0.2,0.2
			L67.8,24.6z"/>
		<path id="パス_604" class="st0" d="M95.9,23.4c0.4,0.3,0.7,0.8,0.7,1.4c0.1,0.7-0.4,1.3-1.1,1.3c-0.1,0-0.1,0-0.2,0
			c-0.6,0.1-1.1-0.4-1.2-1c0-0.1,0-0.1,0-0.2c0-0.3,0.2-0.6,0.4-0.8c0.1-0.1,0.2-0.2,0.2-0.4c0-0.4-0.3-0.7-1-0.7
			c-1.2,0-2,1.3-2,4.2c0,2.8,1.1,3.9,2.4,3.9c0.9,0,1.7-0.6,2-1.4c0-0.1,0.1-0.1,0.2-0.1c0.1,0,0.2,0.1,0.2,0.2c0,0,0,0,0,0
			c-0.5,1.3-1.8,2.1-3.1,2c-2.4,0-4.3-1.8-4.4-4.2c0-0.1,0-0.2,0-0.3c-0.1-2.5,1.9-4.6,4.4-4.6c0,0,0,0,0,0
			C94.5,22.7,95.3,22.9,95.9,23.4z"/>
		<path id="パス_605" class="st0" d="M117.8,24.2c0.5-1,1.5-1.6,2.6-1.5c0.8,0,1.5,0.2,2.1,0.7c0.5,0.5,0.8,1.3,0.8,2.1
			c0,0.7,0,1.6,0,2V30c0,1,0,1.2,1.2,1.3c0.1,0,0.1,0,0.1,0.2c0,0.1,0,0.1-0.1,0.1c-0.7-0.1-1.5-0.1-2.3-0.1c-0.9,0-1.5,0-2.2,0.1
			c-0.2,0-0.2,0-0.2-0.1c0-0.1,0-0.1,0.2-0.2c1-0.1,1-0.2,1-1.3v-4.3c0-1.1-0.1-1.6-0.3-1.9c-0.3-0.3-0.7-0.5-1.1-0.5
			c-0.7,0.1-1.2,0.5-1.5,1.1c-0.2,0.5-0.3,1-0.3,1.5V30c0,1,0,1.2,1.1,1.3c0.1,0,0.1,0,0.1,0.2s0,0.1-0.1,0.1
			c-0.7,0-1.5-0.1-2.3-0.1c-0.8,0-1.6,0-2.2,0.1c-0.1,0-0.1,0-0.1-0.1s0-0.2,0.1-0.2c1.1-0.1,1.1-0.2,1.1-1.3V19.2
			c0-0.5-0.2-0.7-0.6-0.7l-0.8,0c-0.1,0-0.1,0-0.1-0.1s0-0.1,0.1-0.2c0.9-0.1,2.5-0.4,3.5-0.6c0.1,0,0.2,0.1,0.2,0.2l0,3.5
			L117.8,24.2z"/>
		<path id="パス_606" class="st0" d="M143.2,24.3c0-0.5-0.3-0.7-0.6-0.7l-0.7,0c-0.1,0-0.1,0-0.1-0.1s0-0.1,0.1-0.2
			c0.9-0.1,2.5-0.4,3.5-0.6c0.1,0,0.2,0.1,0.2,0.2l-0.1,3.5V30c0,1,0,1.2,1.2,1.3c0.1,0,0.2,0,0.2,0.2c0,0.1,0,0.1-0.2,0.1
			c-0.7,0-1.5-0.1-2.4-0.1s-1.7,0-2.3,0.1c-0.1,0-0.2,0-0.2-0.1c0-0.1,0-0.2,0.2-0.2c1.2-0.1,1.2-0.2,1.2-1.3L143.2,24.3z
			 M145.7,19.3c-0.1,0.8-0.7,1.3-1.5,1.3c-0.7-0.1-1.2-0.6-1.3-1.3c-0.1-0.8,0.5-1.4,1.3-1.5c0.8-0.1,1.4,0.5,1.5,1.3
			C145.7,19.1,145.7,19.2,145.7,19.3z"/>
		<path id="パス_607" class="st0" d="M164.2,23.6c-0.2,0-0.2,0-0.2-0.2s0-0.2,0.2-0.2c0.7-0.1,1.3-0.4,1.9-0.8
			c0.5-0.4,0.9-0.9,1.1-1.4c0.1-0.1,0.1-0.2,0.3-0.2c0.2,0,0.2,0,0.2,0.2l-0.1,2.1c0.7,0,1.3,0,2.2-0.1c0.1,0,0.1,0,0.1,0.1
			l-0.1,0.4c0,0.1-0.1,0.1-0.2,0.1c-0.7-0.1-1.4-0.1-2-0.1l0,5.5c-0.1,0.6,0,1.2,0.3,1.8c0.2,0.2,0.5,0.4,0.8,0.4
			c0.4,0,0.8-0.2,1.1-0.6c0,0,0.1-0.1,0.1-0.1c0.1,0,0.2,0.1,0.2,0.2c-0.5,0.7-1.4,1.1-2.2,1.1c-0.7,0.1-1.5-0.2-2-0.7
			c-0.5-0.6-0.7-1.3-0.6-2.1c0-0.9,0-1.7,0-2.6l0-2.9L164.2,23.6z"/>
		<path id="パス_608" class="st0" d="M190.4,27.3c0,2.8,1.1,3.9,2.4,3.9c1,0,2-0.6,2.4-1.5c0-0.1,0.1-0.1,0.2-0.1
			c0.1,0,0.3,0.1,0.3,0.2c-0.7,1.3-2,2.1-3.5,2c-2.4,0-4.4-1.9-4.4-4.3c0-0.1,0-0.1,0-0.2c-0.1-2.5,1.9-4.5,4.3-4.6
			c2,0,3.6,1.5,3.7,3.5c0,0.2,0,0.3-0.1,0.4c-0.1,0.1-0.2,0.1-0.2,0.1c-0.9,0-2,0-2.9,0s-1.3,0-2.1,0
			C190.4,26.9,190.4,27.1,190.4,27.3z M191.8,26.2c0.4,0,0.7,0,1.4-0.1c0.2,0,0.2-0.1,0.2-0.3c0-1.8-0.4-2.7-1.3-2.7
			c-0.9,0-1.4,0.9-1.6,3.1C191,26.2,191.4,26.2,191.8,26.2L191.8,26.2z"/>
		<path id="パス_609" class="st0" d="M220.5,23.4c0.4,0.3,0.7,0.8,0.7,1.4c0.1,0.7-0.4,1.3-1.1,1.3c-0.1,0-0.1,0-0.2,0
			c-0.6,0.1-1.1-0.4-1.2-1c0-0.1,0-0.1,0-0.2c0-0.3,0.2-0.6,0.4-0.8c0.1-0.1,0.2-0.2,0.2-0.4c0-0.4-0.3-0.7-1-0.7
			c-1.2,0-2,1.3-2,4.2c0,2.8,1.1,3.9,2.4,3.9c0.9,0,1.7-0.6,2-1.4c0-0.1,0.1-0.1,0.2-0.1c0.1,0,0.2,0.1,0.2,0.2c0,0,0,0,0,0
			c-0.5,1.3-1.8,2.1-3.1,2c-2.4,0-4.3-1.8-4.4-4.2c0-0.1,0-0.2,0-0.3c-0.1-2.5,1.9-4.6,4.4-4.6c0,0,0,0,0,0
			C219.1,22.7,219.9,22.9,220.5,23.4z"/>
		<path id="パス_610" class="st0" d="M239,23.6c-0.2,0-0.2,0-0.2-0.2s0-0.2,0.2-0.2c0.7-0.1,1.3-0.4,1.9-0.8
			c0.5-0.4,0.9-0.9,1.1-1.4c0.1-0.1,0.1-0.2,0.3-0.2c0.2,0,0.2,0,0.2,0.2l-0.1,2.1c0.7,0,1.3,0,2.2-0.1c0.1,0,0.1,0,0.1,0.1
			l-0.1,0.4c0,0.1-0.1,0.1-0.2,0.1c-0.7-0.1-1.4-0.1-2-0.1l0,5.5c-0.1,0.6,0,1.2,0.3,1.8c0.2,0.2,0.5,0.4,0.8,0.4
			c0.4,0,0.8-0.2,1.1-0.6c0,0,0.1-0.1,0.1-0.1c0.1,0,0.2,0.1,0.2,0.2c-0.5,0.7-1.4,1.1-2.2,1.1c-0.7,0.1-1.5-0.2-2-0.7
			c-0.5-0.6-0.7-1.3-0.6-2.1c0-0.9,0-1.7,0-2.6l0-2.9L239,23.6z"/>
	</g>
</g>
</svg>
