<?xml version="1.0" encoding="utf-8"?>
<!-- Generator: Adobe Illustrator 25.2.0, SVG Export Plug-In . SVG Version: 6.00 Build 0)  -->
<svg version="1.1" id="レイヤー_1" xmlns="http://www.w3.org/2000/svg" xmlns:xlink="http://www.w3.org/1999/xlink" x="0px"
	 y="0px" viewBox="0 0 230.6 51.9" style="enable-background:new 0 0 230.6 51.9;" xml:space="preserve">
<style type="text/css">
	.st0{fill:#000133;}
</style>
<g id="グループ_301" transform="translate(-283.445 -658.93)">
	<g id="グループ_299" transform="translate(283.445 658.93)">
		<path id="パス_593" class="st0" d="M7.4,20.1c0,5.9,2.2,8.2,5,8.2c2.1,0,4.1-1.2,5-3.1c0.1-0.1,0.2-0.2,0.3-0.2
			c0.2,0,0.5,0.2,0.5,0.4c-1.5,2.7-4.3,4.3-7.3,4.3c-5,0-9.1-4-9.1-9c0-0.2,0-0.3,0-0.5c-0.1-5.2,3.9-9.5,9-9.7
			c4.1,0,7.5,3.2,7.7,7.3c0,0.4,0,0.6-0.2,0.8c-0.1,0.2-0.3,0.2-0.5,0.2c-1.9,0-4.2-0.1-6-0.1c-1.8,0-2.8,0-4.4,0.1
			C7.4,19.2,7.4,19.6,7.4,20.1z M10.2,17.8c0.9,0,1.6,0,2.9-0.1c0.3,0,0.4-0.2,0.4-0.7c0-3.8-0.9-5.8-2.7-5.8c-1.8,0-3,1.9-3.3,6.5
			C8.7,17.8,9.4,17.8,10.2,17.8L10.2,17.8z"/>
		<path id="パス_594" class="st0" d="M36.2,25.1c0,2.6,0.4,3.2,1.3,3.2c0.6,0,1.1-0.3,1.5-0.7c0-0.1,0.1-0.1,0.2-0.1
			c0.2,0,0.3,0.1,0.3,0.3c0,0,0,0,0,0c-1,1.2-2.5,1.8-4,1.6c-2.2,0-3.3-0.7-3.8-2.1c-1.2,1.6-3.2,2.4-5.2,2.3
			c-1.4,0.1-2.9-0.2-4.1-1c-1-0.8-1.5-2-1.5-3.2c-0.1-1.4,0.5-2.7,1.5-3.6c1-0.9,1.8-1.3,5.3-2c1.1-0.1,2.2-0.5,3.1-1.3
			c0.4-0.4,0.7-0.9,0.7-1.5v-1.2c0-3.6-0.9-4.4-3.3-4.4c-1.2,0-2.6,0.8-2.6,1.6c0,0.3,0.1,0.6,0.3,0.7c0.5,0.4,0.7,1,0.7,1.6
			c0,1.2-0.9,2.3-2.2,2.3c-0.1,0-0.2,0-0.3,0c-1.3,0.1-2.4-0.9-2.5-2.1c0-0.1,0-0.2,0-0.3c0-2.3,3.1-4.8,8-4.8
			c4.6,0,6.5,1.7,6.4,5.8L36.2,25.1z M31.6,18.7c-0.3,0.7-1,1.2-3,1.8C26.8,21,26,22.4,26,24.9c0,2.3,1.1,3.5,2.5,3.5
			c1.8-0.1,3.1-1.6,3-3.4c0-0.1,0-0.1,0-0.2L31.6,18.7z"/>
		<path id="パス_595" class="st0" d="M48.3,14.4c1-2.8,2.7-3.9,5-3.9c1.6-0.2,3,1,3.1,2.5c0,0,0,0.1,0,0.1
			c0.1,1.3-0.8,2.5-2.1,2.6c-0.1,0-0.2,0-0.3,0c-1.1,0.1-2.1-0.8-2.2-2c0-0.1,0-0.1,0-0.2c0-0.3,0.1-0.6,0.2-0.8
			c0.1-0.1,0.2-0.3,0.2-0.5c0-0.4-0.1-0.6-0.6-0.6c-0.7,0-2,1.2-2.6,3c-0.5,1.1-0.7,2.3-0.7,3.5v7.5c0,2.1,0,2.5,2.8,2.7
			c0.3,0,0.3,0.1,0.3,0.3s0,0.3-0.3,0.3c-1.5-0.1-3.5-0.1-5.2-0.1c-1.6,0-3.3,0-4.8,0.1c-0.3,0-0.3,0-0.3-0.3s0-0.3,0.3-0.3
			c2.4-0.1,2.5-0.5,2.5-2.7V13.8c0-1-0.6-1.5-1.3-1.5l-1.6,0c-0.3,0-0.3,0-0.3-0.3s0-0.3,0.3-0.3c1.7-0.2,5.5-0.9,7.2-1.2
			c0.3,0,0.5,0.1,0.5,0.4L48.3,14.4z"/>
		<path id="パス_596" class="st0" d="M58.4,12.3c-0.3,0-0.4,0-0.4-0.4c0-0.3,0-0.4,0.4-0.4c1.4-0.2,2.8-0.8,3.9-1.6
			c1-0.8,1.8-1.8,2.4-3c0.1-0.3,0.2-0.4,0.6-0.4c0.4,0,0.5,0.1,0.5,0.4l-0.1,4.4c1.4,0,2.8,0,4.6-0.1c0.2,0,0.3,0.1,0.3,0.3
			l-0.3,0.9c-0.1,0.2-0.1,0.3-0.3,0.3c-1.6-0.1-2.8-0.2-4.3-0.2l-0.1,11.5c-0.2,1.3,0.1,2.6,0.6,3.8c0.4,0.5,1.1,0.8,1.8,0.7
			c0.9,0,1.7-0.5,2.2-1.2c0.1-0.1,0.2-0.1,0.3-0.1c0.2,0,0.4,0.2,0.4,0.4c-1.1,1.5-2.8,2.3-4.7,2.2c-1.5,0.1-3-0.4-4.2-1.4
			c-0.9-0.9-1.3-2.2-1.3-4.3c0-1.9,0-3.7,0.1-5.5l0.1-6.2L58.4,12.3z"/>
		<path id="パス_597" class="st0" d="M79.5,13.6c1-2,3.1-3.3,5.4-3.2c1.6-0.1,3.2,0.5,4.5,1.5c1.1,1.1,1.7,2.7,1.6,4.3
			c0,1.5,0,3.3,0,4.1v5.3c0,2.2,0,2.5,2.5,2.7c0.3,0,0.3,0.1,0.3,0.3s0,0.3-0.3,0.3c-1.6-0.1-3.1-0.1-4.9-0.1c-1.9,0-3.1,0-4.6,0.1
			c-0.3,0-0.4,0-0.4-0.3s0-0.3,0.4-0.3c2.2-0.1,2.2-0.5,2.2-2.7v-9.1c0-2.4-0.2-3.3-0.7-3.9c-0.5-0.7-1.4-1.1-2.2-1
			c-1.4,0.1-2.5,1-3.1,2.2c-0.5,1-0.6,2-0.6,3.1v8.6c0,2.2,0,2.5,2.4,2.7c0.3,0,0.3,0.1,0.3,0.3c0,0.3,0,0.3-0.3,0.3
			c-1.5-0.1-3.1-0.1-4.8-0.1c-1.7,0-3.3,0-4.7,0.1c-0.3,0-0.3,0-0.3-0.3c0-0.3,0-0.3,0.3-0.3c2.4-0.1,2.4-0.5,2.4-2.7V3.1
			c0-1-0.5-1.5-1.2-1.5l-1.7,0.1c-0.2,0-0.3,0-0.3-0.3s0-0.3,0.3-0.3c1.9-0.2,5.1-0.8,7.3-1.2c0.3,0,0.4,0.2,0.4,0.4l-0.1,7.4
			L79.5,13.6z"/>
		<path id="パス_598" class="st0" d="M100.1,7c0-3.4,3-5.9,6.9-5.9c4.2,0,6.8,2.2,6.8,5c0,3-2.1,4.9-7,5.9c2.4,3.5,5.3,7.6,8,10.9
			c1.1-1.8,1.6-3.9,1.4-6c0-1.2-0.7-2.7-3.3-3c-0.2,0-0.3-0.1-0.3-0.3c0-0.3,0-0.3,0.3-0.3c1.3,0.1,2.8,0.1,4.1,0.1s2.8,0,4.1-0.1
			c0.3,0,0.3,0,0.3,0.3c0,0.3,0,0.3-0.3,0.3c-2,0.3-3.2,1.5-3.7,4.1c-0.3,2-1,3.9-2.1,5.5c1,1.5,2.2,2.8,3.5,4
			c0.7,0.5,1.6,0.7,2.5,0.7c0.3,0,0.3,0.1,0.3,0.3c0,0.3,0,0.3-0.3,0.3c-1.4,0-2.8-0.1-3.8-0.1c-1.2,0-2.5,0-3.7,0
			c-0.6-0.9-1-1.5-1.6-2.4c-2,2.1-4.7,3.2-7.6,3.2c-4.8,0.1-8.8-3.7-8.9-8.5c0,0,0-0.1,0-0.1c0-3.8,1.9-6,6.7-8.1
			C101,11.2,100.2,9.1,100.1,7z M100.1,18.9c0,4.7,4,8.7,7.5,8.7c1.5,0,3-0.6,4.1-1.7c-3.1-4-6.2-8.3-8.9-12.4
			C101,14.6,100.1,16.2,100.1,18.9L100.1,18.9z M109.8,6c0-2.9-1.2-4.2-2.7-4.2c-1.6,0-2.8,1.3-2.8,3.8c0.1,2.1,0.9,4.2,2.2,5.8
			C108.6,10.6,109.8,8.9,109.8,6L109.8,6z"/>
		<path id="パス_599" class="st0" d="M141.6,19.9c0.1,5.3-4.1,9.6-9.3,9.7c-5.1,0-9.2-4.2-9.2-9.3c0-0.1,0-0.2,0-0.2
			c-0.1-5.2,4-9.6,9.3-9.7c5.1,0,9.2,4.2,9.2,9.3C141.6,19.8,141.6,19.9,141.6,19.9z M128.7,20c0,6.1,1,8.9,3.7,8.9
			c2.7,0,3.7-2.7,3.7-8.9s-1.1-8.8-3.7-8.8S128.7,13.9,128.7,20z"/>
		<path id="パス_600" class="st0" d="M150.2,13.6c1-2,3.1-3.3,5.3-3.2c1.6-0.1,3.2,0.5,4.4,1.5c1.1,1.1,1.7,2.7,1.6,4.3
			c0,1.5,0,3.3,0,4.1v5.3c0,2.2,0,2.5,2.5,2.7c0.3,0,0.3,0.1,0.3,0.3s0,0.3-0.3,0.3c-1.6-0.1-3.1-0.1-4.9-0.1c-1.8,0-3.1,0-4.6,0.1
			c-0.3,0-0.4,0-0.4-0.3s0-0.3,0.4-0.3c2.1-0.1,2.1-0.5,2.1-2.7v-9.1c0-2.4-0.2-3.3-0.7-3.9c-0.5-0.7-1.3-1.1-2.2-1
			c-1.4,0.1-2.5,1-3.1,2.2c-0.5,1-0.6,2-0.6,3.1v8.6c0,2.2,0,2.5,2.3,2.7c0.3,0,0.3,0.1,0.3,0.3s0,0.3-0.3,0.3
			c-1.5-0.1-3-0.1-4.7-0.1c-1.8,0-3.1,0-4.7,0.1c-0.3,0-0.3,0-0.3-0.3s0-0.3,0.3-0.3c2.4-0.1,2.4-0.5,2.4-2.7v-12
			c0-1-0.5-1.5-1.3-1.5l-1.6,0c-0.3,0-0.3,0-0.3-0.3s0-0.3,0.3-0.3c2.3-0.3,5.2-0.8,7.2-1.2c0.3,0,0.4,0.1,0.4,0.4L150.2,13.6z"/>
		<path id="パス_601" class="st0" d="M170.8,20.1c0,5.9,2.2,8.2,5,8.2c2.1,0,4.1-1.2,5-3.1c0.1-0.1,0.2-0.2,0.3-0.2
			c0.2,0,0.5,0.2,0.5,0.4c-1.5,2.7-4.3,4.3-7.3,4.3c-5,0-9.1-4-9.1-9c0-0.2,0-0.3,0-0.5c-0.1-5.2,3.9-9.5,9-9.7
			c4.1,0,7.5,3.2,7.7,7.3c0,0.4,0,0.6-0.2,0.8c-0.1,0.2-0.3,0.2-0.5,0.2c-1.9,0-4.2-0.1-6-0.1c-1.8,0-2.8,0-4.4,0.1
			C170.8,19.2,170.8,19.6,170.8,20.1z M173.6,17.8c0.9,0,1.6,0,2.9-0.1c0.3,0,0.4-0.2,0.4-0.7c0-3.8-0.9-5.8-2.7-5.8
			c-1.8,0-3,1.9-3.3,6.5C172.1,17.8,172.9,17.8,173.6,17.8z"/>
	</g>
	<g id="グループ_300" transform="translate(285.818 689.224)">
		<path id="パス_602" class="st0" d="M8.6,18.8c0,1,0.2,1.3,0.5,1.3c0.2,0,0.4-0.1,0.6-0.3c0,0,0,0,0.1,0c0.1,0,0.1,0.1,0.1,0.1
			c-0.4,0.5-1,0.7-1.6,0.6c-0.9,0-1.3-0.3-1.5-0.9c-0.5,0.6-1.3,1-2.1,0.9c-0.6,0-1.2-0.1-1.6-0.4c-0.4-0.3-0.6-0.8-0.6-1.3
			c0-0.5,0.2-1.1,0.6-1.4c0.6-0.5,1.4-0.8,2.1-0.8c0.5,0,0.9-0.2,1.2-0.5c0.2-0.1,0.3-0.4,0.3-0.6V15c0-1.5-0.4-1.8-1.3-1.8
			c-0.5,0-1.1,0.3-1.1,0.7c0,0.1,0,0.2,0.1,0.3c0.2,0.2,0.3,0.4,0.3,0.7c0,0.5-0.4,0.9-0.9,0.9c0,0-0.1,0-0.1,0c-0.5,0-1-0.3-1-0.8
			c0,0,0-0.1,0-0.1c0-0.9,1.3-1.9,3.2-1.9c1.9,0,2.6,0.7,2.6,2.3L8.6,18.8z M6.8,16.2c-0.1,0.3-0.4,0.5-1.2,0.7
			c-0.7,0.2-1,0.8-1,1.8c0,0.9,0.4,1.4,1,1.4c0.7,0,1.3-0.6,1.2-1.4c0,0,0-0.1,0-0.1L6.8,16.2z"/>
		<path id="パス_603" class="st0" d="M27.3,14.5c0.2-0.9,1-1.6,2-1.6c0.6-0.1,1.2,0.4,1.3,1c0,0,0,0,0,0.1c0,0.5-0.3,1-0.9,1
			c0,0-0.1,0-0.1,0c-0.5,0-0.9-0.3-0.9-0.8c0,0,0,0,0-0.1c0-0.1,0-0.2,0.1-0.3c0-0.1,0.1-0.1,0.1-0.2c0-0.2-0.1-0.2-0.2-0.2
			c-0.3,0-0.8,0.5-1.1,1.2c-0.2,0.5-0.3,0.9-0.3,1.4v3c0,0.9,0,1,1.1,1.1c0.1,0,0.1,0,0.1,0.1c0,0.1,0,0.1-0.1,0.1
			c-0.6,0-1.4,0-2.1,0c-0.7,0-1.3,0-1.9,0c-0.1,0-0.1,0-0.1-0.1c0-0.1,0-0.1,0.1-0.1c1-0.1,1-0.2,1-1.1v-4.8c0-0.4-0.2-0.6-0.5-0.6
			l-0.6,0c-0.1,0-0.1,0-0.1-0.1s0-0.1,0.1-0.1c0.7-0.1,2.2-0.3,2.9-0.5c0.1,0,0.2,0,0.2,0.2L27.3,14.5z"/>
		<path id="パス_604" class="st0" d="M51,13.5c0.4,0.3,0.6,0.7,0.6,1.1c0.1,0.6-0.4,1.1-0.9,1.1c-0.1,0-0.1,0-0.2,0
			c-0.5,0-0.9-0.3-1-0.8c0,0,0-0.1,0-0.1c0-0.3,0.1-0.5,0.4-0.7c0.1-0.1,0.2-0.2,0.2-0.3c0-0.3-0.3-0.6-0.8-0.6
			c-1.1,0-1.7,1.1-1.7,3.5c0,2.4,0.9,3.3,2,3.3c0.8,0,1.5-0.5,1.7-1.2c0-0.1,0.1-0.1,0.1-0.1c0.1,0,0.2,0.1,0.2,0.2c0,0,0,0,0,0
			c-0.4,1.1-1.5,1.7-2.6,1.7c-2,0-3.6-1.5-3.7-3.5c0-0.1,0-0.2,0-0.3c-0.1-2.1,1.6-3.8,3.7-3.9c0,0,0,0,0,0
			C49.8,12.9,50.5,13.1,51,13.5z"/>
		<path id="パス_605" class="st0" d="M69.5,14.2c0.4-0.8,1.3-1.3,2.2-1.3c0.7,0,1.3,0.2,1.8,0.6c0.5,0.5,0.7,1.1,0.7,1.7
			c0,0.6,0,1.3,0,1.7v2.1c0,0.9,0,1,1,1.1c0.1,0,0.1,0,0.1,0.1c0,0.1,0,0.1-0.1,0.1c-0.6,0-1.2,0-2,0c-0.8,0-1.2,0-1.9,0
			c-0.1,0-0.2,0-0.2-0.1c0-0.1,0-0.1,0.2-0.1c0.9-0.1,0.9-0.2,0.9-1.1v-3.6c0-0.9-0.1-1.3-0.3-1.6c-0.2-0.3-0.6-0.4-0.9-0.4
			c-0.6,0.1-1,0.4-1.2,0.9c-0.2,0.4-0.3,0.8-0.2,1.2v3.5c0,0.9,0,1,0.9,1.1c0.1,0,0.1,0,0.1,0.1c0,0.1,0,0.1-0.1,0.1
			c-0.6,0-1.2,0-1.9,0s-1.3,0-1.9,0c-0.1,0-0.1,0-0.1-0.1c0-0.1,0-0.1,0.1-0.1c1-0.1,1-0.2,1-1.1V10c0-0.4-0.2-0.6-0.5-0.6l-0.7,0
			c-0.1,0-0.1,0-0.1-0.1c0-0.1,0-0.1,0.1-0.1c0.8-0.1,2.1-0.3,2.9-0.5c0.1,0,0.2,0.1,0.2,0.2l0,3L69.5,14.2z"/>
		<path id="パス_606" class="st0" d="M90.9,14.3c0-0.4-0.2-0.6-0.5-0.6l-0.6,0c-0.1,0-0.1,0-0.1-0.1c0-0.1,0-0.1,0.1-0.1
			c0.8-0.1,2.1-0.3,2.9-0.5c0.1,0,0.2,0.1,0.2,0.2l0,3v3c0,0.9,0,1,1.1,1.1c0.1,0,0.1,0,0.1,0.1s0,0.1-0.1,0.1c-0.6,0-1.3,0-2,0
			s-1.4,0-2,0c-0.1,0-0.1,0-0.1-0.1s0-0.1,0.1-0.1c1-0.1,1-0.2,1-1.1L90.9,14.3z M92.9,10.1c-0.1,0.6-0.6,1.1-1.3,1.1
			c-0.6,0-1-0.5-1.1-1.1c-0.1-0.6,0.4-1.2,1.1-1.3c0.6-0.1,1.2,0.4,1.3,1.1C92.9,9.9,92.9,10,92.9,10.1z"/>
		<path id="パス_607" class="st0" d="M108.6,13.6c-0.1,0-0.1,0-0.1-0.1s0-0.2,0.2-0.2c0.6-0.1,1.1-0.3,1.6-0.7
			c0.4-0.3,0.7-0.7,0.9-1.2c0.1-0.1,0.1-0.1,0.2-0.1c0.2,0,0.2,0,0.2,0.1l0,1.8c0.6,0,1.1,0,1.8-0.1c0.1,0,0.1,0,0.1,0.1l-0.1,0.3
			c0,0.1-0.1,0.1-0.1,0.1c-0.6-0.1-1.1-0.1-1.7-0.1l0,4.6c-0.1,0.5,0,1,0.2,1.5c0.2,0.2,0.4,0.3,0.7,0.3c0.4,0,0.7-0.2,0.9-0.5
			c0,0,0.1,0,0.1,0c0.1,0,0.2,0.1,0.2,0.2c-0.4,0.6-1.1,0.9-1.9,0.9c-0.6,0.1-1.2-0.1-1.7-0.6c-0.4-0.5-0.6-1.1-0.5-1.7
			c0-0.8,0-1.5,0-2.2l0-2.5L108.6,13.6z"/>
		<path id="パス_608" class="st0" d="M130.6,16.8c0,2.4,0.9,3.3,2,3.3c0.9,0,1.6-0.5,2-1.3c0-0.1,0.1-0.1,0.1-0.1
			c0.1,0,0.2,0.1,0.2,0.2c-0.6,1.1-1.7,1.7-2.9,1.7c-2,0-3.7-1.6-3.7-3.6c0-0.1,0-0.1,0-0.2c-0.1-2.1,1.6-3.8,3.6-3.9
			c1.7,0,3,1.3,3.1,2.9c0,0.2,0,0.2-0.1,0.3c-0.1,0.1-0.1,0.1-0.2,0.1c-0.8,0-1.7,0-2.4,0s-1.1,0-1.8,0
			C130.6,16.4,130.6,16.6,130.6,16.8z M131.7,15.9c0.4,0,0.6,0,1.2-0.1c0.1,0,0.1-0.1,0.1-0.3c0-1.5-0.4-2.3-1.1-2.3
			s-1.2,0.8-1.3,2.6C131.1,15.9,131.4,15.9,131.7,15.9L131.7,15.9z"/>
		<path id="パス_609" class="st0" d="M156,13.5c0.4,0.3,0.6,0.7,0.6,1.1c0.1,0.6-0.4,1.1-0.9,1.1c-0.1,0-0.1,0-0.2,0
			c-0.5,0-0.9-0.3-1-0.8c0,0,0-0.1,0-0.1c0-0.3,0.1-0.5,0.4-0.7c0.1-0.1,0.2-0.2,0.2-0.3c0-0.3-0.3-0.6-0.8-0.6
			c-1.1,0-1.7,1.1-1.7,3.5c0,2.4,0.9,3.3,2,3.3c0.8,0,1.5-0.5,1.7-1.2c0-0.1,0.1-0.1,0.1-0.1c0.1,0,0.2,0.1,0.2,0.2c0,0,0,0,0,0
			c-0.4,1.1-1.5,1.7-2.6,1.7c-2,0-3.6-1.5-3.7-3.5c0-0.1,0-0.2,0-0.3c-0.1-2.1,1.6-3.8,3.7-3.9c0,0,0,0,0,0
			C154.7,12.9,155.4,13.1,156,13.5z"/>
		<path id="パス_610" class="st0" d="M171.5,13.6c-0.1,0-0.1,0-0.1-0.1s0-0.2,0.2-0.2c0.6-0.1,1.1-0.3,1.6-0.7
			c0.4-0.3,0.7-0.7,0.9-1.2c0.1-0.1,0.1-0.1,0.2-0.1c0.2,0,0.2,0,0.2,0.1l0,1.8c0.6,0,1.1,0,1.8-0.1c0.1,0,0.1,0,0.1,0.1l-0.1,0.3
			c0,0.1-0.1,0.1-0.1,0.1c-0.6-0.1-1.1-0.1-1.7-0.1l0,4.6c-0.1,0.5,0,1,0.2,1.5c0.2,0.2,0.4,0.3,0.7,0.3c0.4,0,0.7-0.2,0.9-0.5
			c0,0,0.1,0,0.1,0c0.1,0,0.2,0.1,0.1,0.2c-0.4,0.6-1.1,0.9-1.9,0.9c-0.6,0.1-1.2-0.1-1.7-0.6c-0.4-0.5-0.6-1.1-0.5-1.7
			c0-0.8,0-1.5,0-2.2l0-2.5L171.5,13.6z"/>
	</g>
</g>
</svg>
