<svg xmlns="http://www.w3.org/2000/svg" width="230.602" height="51.899" viewBox="0 0 230.602 51.899">
  <g id="グループ_286" data-name="グループ 286" transform="translate(-282.864 -316.945)">
    <g id="グループ_247" data-name="グループ 247" transform="translate(282.864 316.945)">
      <path id="パス_504" data-name="パス 504" d="M291.746,339.972c0,2.406.21,2.8,3.5,2.8a9.976,9.976,0,0,0,5.873-2.017,12.481,12.481,0,0,0,3.467-4.424c.108-.212.177-.282.354-.282a.4.4,0,0,1,.424.388,68.35,68.35,0,0,1-1.911,7.4c-3.042-.071-6.864-.106-9.766-.106-3.466,0-7.253.035-10.3.106-.353,0-.389-.036-.389-.283,0-.283.036-.32.389-.354,2.866-.177,3.4-.742,3.4-3.255V321.253c0-2.548-.389-3.078-3.575-3.29-.318-.035-.353-.071-.353-.32,0-.283.035-.318.353-.318,3.009.071,6.652.106,9.944.106,3.221,0,6.723-.035,9.7-.106.214,1.84.637,5.132.886,6.971,0,.283-.177.389-.5.389-.142,0-.214-.106-.285-.283a9.9,9.9,0,0,0-2.972-4.353c-1.239-1.061-2.9-1.663-5.662-1.663-2.406,0-2.582.354-2.582,2.76v8.245c.53.036.884.036,1.451.036a7.309,7.309,0,0,0,4.317-.992,4.05,4.05,0,0,0,1.626-2.689c.071-.354.108-.389.425-.389s.354.035.354.389c-.036,1.239-.036,2.9-.036,4.176,0,1.308,0,3.078.036,4.388,0,.318-.036.353-.354.353s-.354-.035-.425-.353a5,5,0,0,0-1.663-3.009c-.672-.566-2.052-.919-4.28-.919-.566,0-.921,0-1.451.035Z" transform="translate(-282.864 -316.724)" fill="#fff"/>
      <path id="パス_505" data-name="パス 505" d="M312.166,334.247c-1.133-.07-2.689-.106-4.14-.106-1.416,0-2.691.036-4.141.106l-.424,1.2a17.556,17.556,0,0,0-1.31,5.2c0,1.663.778,2.442,3.255,2.76.354.035.389.071.389.354,0,.247-.035.283-.389.283-1.451-.071-3.255-.106-4.529-.106-1.2,0-2.512.035-3.857.106-.32,0-.354-.036-.354-.283,0-.283.035-.32.354-.354a3.891,3.891,0,0,0,2.477-1.7c.742-1.027,1.345-2.442,2.724-6.441l3.255-9.306c1.061-3.078,1.84-5.413,2.442-7.5l3.219-1.522a.413.413,0,0,1,.424.353c.851,2.514,1.7,4.954,3.044,8.882l4.742,14.014c.955,2.8,1.133,2.972,3.4,3.219.318.035.354.071.354.354,0,.247-.036.283-.354.283-1.663-.071-3.148-.106-5.413-.106-2.159,0-4.034.035-5.7.106-.318,0-.353-.036-.353-.32s.035-.318.353-.318c2.514-.071,2.9-.637,2.9-1.273a6.029,6.029,0,0,0-.425-1.946Zm-2.76-8.139c-.566-1.663-.884-2.759-1.379-4.387-.5,1.7-.921,3.042-1.416,4.458l-2.371,6.865c1.167.07,2.548.07,3.787.07s2.724,0,3.714-.07Z" transform="translate(-274.833 -316.945)" fill="#fff"/>
      <path id="パス_506" data-name="パス 506" d="M321.451,339.985c0,2.477.177,3.042,3.361,3.219.354.035.391.071.391.354,0,.247-.036.283-.391.283-1.662-.071-3.891-.106-5.837-.106-1.912,0-4.212.035-5.734.106-.318,0-.353-.036-.353-.283,0-.32.035-.354.32-.354,2.936-.177,3.361-.742,3.361-3.255V321.231c0-2.514-.391-3.043-3.575-3.255-.318-.035-.353-.071-.353-.32,0-.283.035-.318.353-.318,1.664.071,4.034.106,5.981.106,1.98,0,3.608-.141,5.2-.141,7.607,0,10.51,2.547,10.51,6.617,0,2.759-1.982,5.024-5.839,6.016l5.236,10.119c1.451,2.8,1.734,2.938,3.751,3.184.214.036.248.071.248.354,0,.212-.035.248-.248.248-1.591-.071-3.219-.106-4.317-.106s-2.087,0-3.255.035c-.566-1.379-1.025-2.406-1.7-3.751l-4.6-9.306H322.8c-.354,0-.815,0-1.346-.036Zm0-10.227a8.416,8.416,0,0,0,1.593.106c4.317,0,6.263-2.053,6.263-5.767,0-4.176-1.628-5.875-5.8-5.875-1.7,0-2.053.389-2.053,2.866Z" transform="translate(-265.537 -316.737)" fill="#fff"/>
      <path id="パス_507" data-name="パス 507" d="M338.2,321.182c0-2.406-.177-2.8-1.768-2.8a5.762,5.762,0,0,0-4.282,1.7,11.025,11.025,0,0,0-2.938,4.67c-.071.177-.141.285-.283.285-.318,0-.5-.108-.5-.389.318-2.017.743-5.486.921-7.326,3.926.071,7.713.106,11.323.106,3.679,0,7.572-.035,11.535-.106.214,1.84.637,5.309.884,7.326,0,.282-.176.389-.5.389-.141,0-.212-.108-.283-.285a11.01,11.01,0,0,0-2.936-4.67,6.087,6.087,0,0,0-4.424-1.7c-1.628,0-1.8.389-1.8,2.8v18.791c0,2.477.318,3.042,3.608,3.219.32.035.354.071.354.354,0,.247-.035.283-.354.283-1.485-.071-4.246-.106-6.085-.106-1.911,0-4.423.035-5.768.106-.319,0-.354-.036-.354-.283,0-.283.035-.32.354-.354,2.759-.177,3.29-.742,3.29-3.219Z" transform="translate(-256.347 -316.724)" fill="#fff"/>
      <path id="パス_508" data-name="パス 508" d="M353.169,339.936c0,2.514.142,3.078,3.469,3.255.318,0,.353.035.353.318s-.035.32-.353.32c-1.7-.071-3.964-.106-5.91-.106-1.911,0-4.211.035-5.767.106-.283,0-.318-.036-.318-.283,0-.32.035-.354.318-.354,2.866-.177,3.255-.742,3.255-3.255V321.218c0-2.514-.177-3.044-3.361-3.255-.319-.035-.354-.071-.354-.32,0-.283.035-.318.354-.318,1.663.071,3.928.106,5.873.106,1.982,0,4.247-.035,5.8-.106.318,0,.354.035.354.318,0,.248-.036.285-.354.32-2.972.176-3.363.742-3.363,3.255v8.033c2.2.106,4.212.106,6.052.106s3.751,0,5.91-.106v-8.033c0-2.514-.177-3.044-3.4-3.255-.283-.035-.318-.071-.318-.32,0-.283.035-.318.354-.318,1.663.071,3.822.106,5.766.106,1.982,0,4.353-.035,5.91-.106.32,0,.354.035.354.318,0,.248-.035.285-.354.32-2.972.176-3.361.742-3.361,3.255v18.718c0,2.514.142,3.078,3.433,3.255.354.035.389.071.389.354,0,.247-.035.283-.389.283-1.663-.071-4.034-.106-5.981-.106s-4.1.035-5.625.106c-.318,0-.354-.036-.354-.283,0-.283.036-.32.354-.354,2.83-.177,3.221-.742,3.221-3.255v-9.342c-2.159-.141-4.07-.141-5.91-.141s-3.857,0-6.052.141Z" transform="translate(-247 -316.724)" fill="#fff"/>
      <path id="パス_509" data-name="パス 509" d="M368.185,322.915c0-3.256,2.866-5.59,6.546-5.59,4,0,6.476,2.053,6.476,4.777,0,2.866-1.947,4.6-6.653,5.59,2.229,3.29,4.991,7.22,7.538,10.369.849-1.169,1.345-2.972,1.345-5.7,0-1.167-.707-2.512-3.15-2.832-.212-.035-.247-.07-.247-.318s.035-.283.247-.283c1.239.071,2.62.106,3.928.106s2.689-.035,3.928-.106c.248,0,.283.036.283.283s-.035.283-.283.318c-1.911.283-3.007,1.381-3.5,3.928a12.96,12.96,0,0,1-2.018,5.238c2.371,2.937,2.974,3.573,3.327,3.822a4.229,4.229,0,0,0,2.335.707c.285.036.319.071.319.32s-.035.283-.319.283c-1.308-.036-2.653-.106-3.573-.106-1.1,0-2.406,0-3.5.035-.531-.813-.921-1.451-1.558-2.3a9.78,9.78,0,0,1-7.183,3.007,8.263,8.263,0,0,1-8.457-8.173c0-3.573,1.84-5.7,6.335-7.715A9.98,9.98,0,0,1,368.185,322.915Zm0,11.324c0,4.458,3.785,8.243,7.077,8.243a5.2,5.2,0,0,0,3.857-1.591c-2.936-3.785-5.839-7.89-8.385-11.783C369.035,330.135,368.185,331.657,368.185,334.24ZM377.314,322c0-2.726-1.131-4-2.547-4-1.522,0-2.691,1.2-2.691,3.645a9.145,9.145,0,0,0,2.124,5.521C376.183,326.384,377.314,324.72,377.314,322Z" transform="translate(-235.649 -316.724)" fill="#fff"/>
      <path id="パス_510" data-name="パス 510" d="M406.944,330.639c0,8.279-6.014,14.047-13.057,14.047S380.9,339.238,380.9,330.957s6.052-14.012,13.058-14.012S406.944,322.358,406.944,330.639Zm-20.063.176c0,8.7,2.724,13.058,7.042,13.058s7.041-4.353,7.041-13.058-2.76-13.057-7.041-13.057S386.881,322.11,386.881,330.815Z" transform="translate(-225.821 -316.945)" fill="#fff"/>
      <path id="パス_511" data-name="パス 511" d="M402.393,321.292l.141,13.8c.036,3.148.142,5.272.921,6.509a3.828,3.828,0,0,0,3.115,1.593c.353.035.389.071.389.354,0,.247-.036.283-.389.283-1.558-.071-3.292-.106-4.706-.106s-2.972.035-4.388.106c-.318,0-.354-.036-.354-.283,0-.283.036-.319.354-.354a3.29,3.29,0,0,0,2.548-1.557c.777-1.31.99-3.469,1.025-6.546l.177-13.871v-.884c0-1.275-.743-2.2-3.467-2.371-.32-.035-.354-.071-.354-.32,0-.283.035-.353.354-.318,1.239.071,3.361.142,4.423.142,1.167,0,2.583,0,4.28-.036.815,1.416,1.664,2.938,2.62,4.458l7.538,11.82c.99,1.591,1.8,2.972,2.654,4.353l-.036-4v-7.75c0-3.469-.141-5.733-1.061-6.935a4.118,4.118,0,0,0-3.009-1.416c-.318-.035-.353-.071-.353-.32,0-.283.035-.353.353-.318,1.239.071,3.292.142,4.6.142,1.381,0,3.186-.071,4.353-.142.318,0,.354.035.354.283s-.036.319-.354.354a3.232,3.232,0,0,0-2.265,1.345c-.884,1.273-1.239,3.608-1.273,7.006l-.142,11.005c-.035,2.512,0,4,.036,6.016l-2.654,1.131c-.212,0-.318-.035-.389-.141-1.027-1.8-2.088-3.573-3.716-6.122l-10.9-16.913Z" transform="translate(-216.382 -316.727)" fill="#fff"/>
      <path id="パス_512" data-name="パス 512" d="M423.3,339.972c0,2.406.212,2.8,3.5,2.8a9.977,9.977,0,0,0,5.875-2.017,12.5,12.5,0,0,0,3.467-4.424c.106-.212.177-.282.354-.282a.4.4,0,0,1,.426.388,69.5,69.5,0,0,1-1.911,7.4c-3.044-.071-6.865-.106-9.768-.106-3.467,0-7.253.035-10.3.106-.354,0-.389-.036-.389-.283,0-.283.035-.32.389-.354,2.866-.177,3.4-.742,3.4-3.255V321.253c0-2.548-.389-3.078-3.573-3.29-.32-.035-.353-.071-.353-.32,0-.283.033-.318.353-.318,3.009.071,6.652.106,9.944.106,3.219,0,6.723-.035,9.7-.106.212,1.84.638,5.132.884,6.971,0,.283-.177.389-.5.389-.141,0-.212-.106-.283-.283a9.906,9.906,0,0,0-2.972-4.353c-1.239-1.061-2.9-1.663-5.661-1.663-2.406,0-2.583.354-2.583,2.76v8.245c.531.036.884.036,1.451.036a7.3,7.3,0,0,0,4.317-.992,4.045,4.045,0,0,0,1.628-2.689c.071-.354.106-.389.426-.389s.353.035.353.389c-.035,1.239-.035,2.9-.035,4.176,0,1.308,0,3.078.035,4.388,0,.318-.035.353-.353.353s-.354-.035-.426-.353a5,5,0,0,0-1.663-3.009c-.672-.566-2.053-.919-4.282-.919-.566,0-.919,0-1.451.035Z" transform="translate(-206.319 -316.724)" fill="#fff"/>
    </g>
    <g id="グループ_248" data-name="グループ 248" transform="translate(283.944 357.68)">
      <path id="パス_513" data-name="パス 513" d="M289.784,349.661c-.456-.029-1.082-.044-1.666-.044s-1.082.016-1.666.044l-.171.482a7.079,7.079,0,0,0-.527,2.094c0,.669.313.982,1.31,1.111.142.014.157.028.157.142s-.014.114-.157.114c-.584-.029-1.31-.043-1.822-.043-.486,0-1.012.014-1.553.043-.128,0-.142-.014-.142-.114s.014-.128.142-.142a1.565,1.565,0,0,0,1-.683,10.366,10.366,0,0,0,1.095-2.593l1.311-3.744c.427-1.24.74-2.18.982-3.02l1.3-.612a.167.167,0,0,1,.171.142c.342,1.011.685,1.993,1.226,3.575l1.908,5.639c.384,1.125.456,1.2,1.367,1.3.128.014.142.028.142.142s-.014.114-.142.114c-.669-.029-1.267-.043-2.178-.043-.868,0-1.625.014-2.294.043-.128,0-.142-.014-.142-.128s.014-.128.142-.128c1.012-.029,1.169-.256,1.169-.513a2.434,2.434,0,0,0-.172-.783Zm-1.111-3.276c-.228-.671-.356-1.11-.555-1.765-.2.683-.37,1.224-.569,1.794l-.954,2.762c.47.03,1.025.03,1.523.03s1.1,0,1.495-.03Z" transform="translate(-283.547 -342.696)" fill="#fff"/>
      <path id="パス_514" data-name="パス 514" d="M305.123,351.969c0,1,.071,1.224,1.353,1.3.142.014.157.028.157.142s-.014.114-.157.114c-.669-.028-1.566-.043-2.351-.043-.769,0-1.694.014-2.306.043-.128,0-.142-.014-.142-.114,0-.128.014-.142.128-.142,1.182-.071,1.353-.3,1.353-1.31V344.42c0-1.011-.157-1.224-1.438-1.31-.128-.014-.142-.028-.142-.128s.014-.128.142-.128c.669.028,1.623.043,2.406.043s1.454-.057,2.094-.057c3.061,0,4.23,1.025,4.23,2.662,0,1.112-.8,2.023-2.351,2.422L310.207,352c.584,1.125.7,1.182,1.509,1.281.085.014.1.028.1.142,0,.085-.014.1-.1.1-.641-.028-1.3-.043-1.737-.043s-.842,0-1.31.014c-.228-.555-.414-.968-.685-1.509l-1.851-3.746h-.47c-.142,0-.327,0-.541-.014Zm0-4.116a3.371,3.371,0,0,0,.641.043c1.737,0,2.52-.826,2.52-2.321,0-1.682-.655-2.365-2.335-2.365-.683,0-.826.157-.826,1.153Z" transform="translate(-273.057 -342.612)" fill="#fff"/>
      <path id="パス_515" data-name="パス 515" d="M327.671,345.9c0,.114-.071.157-.2.157-.057,0-.085-.043-.114-.114a6.471,6.471,0,0,0-1.3-2.094,2.255,2.255,0,0,0-1.609-.811c-1.781,0-3.034,1.753-3.034,5.241,0,3.176,1.452,4.956,3.289,4.956,1.155,0,2.094-.513,2.82-2.18a.144.144,0,0,1,.142-.084c.114,0,.214.071.214.142,0,.029,0,.029-.028.1a3.622,3.622,0,0,1-3.6,2.648,5.2,5.2,0,0,1-5.239-5.525,5.451,5.451,0,0,1,5.44-5.639,5.152,5.152,0,0,1,1.224.157,4.107,4.107,0,0,0,.883.157,5.152,5.152,0,0,0,.769-.071C327.414,343.792,327.585,345.159,327.671,345.9Z" transform="translate(-262.911 -342.696)" fill="#fff"/>
      <path id="パス_516" data-name="パス 516" d="M339.4,351.949c0,1.011.057,1.239,1.4,1.31.128,0,.142.014.142.128s-.014.128-.142.128c-.683-.028-1.595-.043-2.378-.043s-1.7.014-2.322.043c-.114,0-.128-.014-.128-.114,0-.128.014-.142.128-.142,1.153-.071,1.31-.3,1.31-1.31v-7.534c0-1.011-.071-1.224-1.353-1.31-.128-.014-.142-.028-.142-.128s.014-.128.142-.128c.669.028,1.58.043,2.365.043s1.708-.014,2.335-.043c.128,0,.142.014.142.128s-.014.114-.142.128c-1.2.071-1.352.3-1.352,1.31v3.233c.883.043,1.694.043,2.434.043s1.511,0,2.379-.043v-3.233c0-1.011-.071-1.224-1.368-1.31-.112-.014-.128-.028-.128-.128s.016-.128.144-.128c.668.028,1.538.043,2.321.043s1.751-.014,2.378-.043c.128,0,.144.014.144.128s-.016.114-.144.128c-1.2.071-1.352.3-1.352,1.31v7.534c0,1.011.057,1.239,1.381,1.31.142.014.158.028.158.142s-.016.114-.158.114c-.669-.028-1.623-.043-2.406-.043s-1.653.014-2.264.043c-.128,0-.144-.014-.144-.114s.016-.128.144-.142c1.139-.071,1.3-.3,1.3-1.31v-3.76c-.868-.057-1.639-.057-2.379-.057s-1.552,0-2.434.057Z" transform="translate(-253.077 -342.607)" fill="#fff"/>
      <path id="パス_517" data-name="パス 517" d="M358.313,351.949c0,1.011.057,1.239,1.411,1.31.128,0,.141.014.141.142,0,.1-.013.114-.141.114-.685-.028-1.639-.043-2.422-.043s-1.68.014-2.292.043c-.13,0-.142-.014-.142-.114,0-.128.013-.142.128-.142,1.167-.071,1.324-.3,1.324-1.31v-7.534c0-1.011-.071-1.224-1.368-1.31-.128-.014-.141-.028-.141-.128s.013-.128.141-.128c.671.028,1.568.043,2.351.043s1.751-.014,2.379-.043c.127,0,.141.014.141.128s-.014.114-.141.128c-1.212.071-1.368.3-1.368,1.31Z" transform="translate(-242.081 -342.607)" fill="#fff"/>
      <path id="パス_518" data-name="パス 518" d="M373.3,344.4c0-.97-.071-1.126-.712-1.126a2.318,2.318,0,0,0-1.723.683,4.441,4.441,0,0,0-1.182,1.881c-.029.071-.057.114-.114.114-.13,0-.2-.043-.2-.157.128-.811.3-2.208.369-2.949,1.582.028,3.105.043,4.557.043,1.482,0,3.048-.014,4.643-.043.087.74.256,2.137.356,2.949,0,.114-.07.157-.2.157-.057,0-.086-.043-.114-.114a4.438,4.438,0,0,0-1.182-1.881,2.448,2.448,0,0,0-1.78-.683c-.655,0-.726.157-.726,1.126v7.561c0,1,.128,1.224,1.452,1.3.128.014.142.028.142.142s-.014.114-.142.114c-.6-.028-1.708-.043-2.45-.043-.769,0-1.78.014-2.321.043-.128,0-.142-.014-.142-.114s.014-.128.142-.142c1.11-.071,1.324-.3,1.324-1.3Z" transform="translate(-233.608 -342.607)" fill="#fff"/>
      <path id="パス_519" data-name="パス 519" d="M390.594,351.964c0,.968.085,1.125,1.411,1.125a4.012,4.012,0,0,0,2.363-.811,5,5,0,0,0,1.4-1.78c.044-.087.073-.114.144-.114a.161.161,0,0,1,.171.155,27.638,27.638,0,0,1-.77,2.977c-1.224-.028-2.762-.043-3.929-.043-1.4,0-2.92.014-4.144.043-.142,0-.157-.014-.157-.114s.014-.128.157-.142c1.153-.071,1.367-.3,1.367-1.31v-7.519c0-1.027-.157-1.24-1.438-1.326-.128-.014-.142-.028-.142-.128s.014-.128.142-.128c1.21.028,2.677.043,4,.043,1.3,0,2.705-.014,3.9-.043.085.74.258,2.066.358,2.806,0,.114-.071.157-.2.157-.058,0-.087-.043-.115-.114a3.987,3.987,0,0,0-1.2-1.753,3.272,3.272,0,0,0-2.279-.669c-.967,0-1.039.142-1.039,1.111v3.319c.215.014.356.014.584.014a2.944,2.944,0,0,0,1.738-.4,1.628,1.628,0,0,0,.655-1.082c.029-.142.043-.157.171-.157s.142.014.142.157c-.014.5-.014,1.167-.014,1.68s0,1.239.014,1.765c0,.128-.014.142-.142.142s-.142-.014-.171-.142a2.012,2.012,0,0,0-.669-1.21,2.829,2.829,0,0,0-1.724-.37c-.228,0-.369,0-.584.014Z" transform="translate(-223.34 -342.607)" fill="#fff"/>
      <path id="パス_520" data-name="パス 520" d="M412.859,345.9c0,.114-.073.157-.2.157-.055,0-.084-.043-.112-.114a6.476,6.476,0,0,0-1.3-2.094,2.255,2.255,0,0,0-1.609-.811c-1.78,0-3.034,1.753-3.034,5.241,0,3.176,1.454,4.956,3.29,4.956,1.153,0,2.094-.513,2.819-2.18a.146.146,0,0,1,.144-.084c.114,0,.213.071.213.142,0,.029,0,.029-.028.1a3.625,3.625,0,0,1-3.6,2.648,5.2,5.2,0,0,1-5.241-5.525,5.451,5.451,0,0,1,5.44-5.639,5.142,5.142,0,0,1,1.224.157,4.108,4.108,0,0,0,.883.157,5.19,5.19,0,0,0,.77-.071C412.6,343.792,412.774,345.159,412.859,345.9Z" transform="translate(-213.344 -342.696)" fill="#fff"/>
      <path id="パス_521" data-name="パス 521" d="M425.183,344.4c0-.97-.071-1.126-.712-1.126a2.32,2.32,0,0,0-1.723.683,4.456,4.456,0,0,0-1.182,1.881c-.028.071-.057.114-.114.114-.128,0-.2-.043-.2-.157.128-.811.3-2.208.37-2.949,1.58.028,3.1.043,4.557.043,1.481,0,3.047-.014,4.643-.043.084.74.256,2.137.354,2.949,0,.114-.071.157-.2.157-.055,0-.084-.043-.112-.114a4.453,4.453,0,0,0-1.182-1.881,2.451,2.451,0,0,0-1.781-.683c-.655,0-.726.157-.726,1.126v7.561c0,1,.128,1.224,1.452,1.3.128.014.144.028.144.142s-.016.114-.144.114c-.6-.028-1.708-.043-2.449-.043-.769,0-1.781.014-2.322.043-.128,0-.141-.014-.141-.114s.013-.128.141-.142c1.112-.071,1.324-.3,1.324-1.3Z" transform="translate(-203.421 -342.607)" fill="#fff"/>
    </g>
  </g>
</svg>
