<?xml version="1.0" encoding="utf-8"?>
<!-- Generator: Adobe Illustrator 25.2.0, SVG Export Plug-In . SVG Version: 6.00 Build 0)  -->
<svg version="1.1" id="レイヤー_1" xmlns="http://www.w3.org/2000/svg" xmlns:xlink="http://www.w3.org/1999/xlink" x="0px"
	 y="0px" viewBox="0 0 230.6 51.9" style="enable-background:new 0 0 230.6 51.9;" xml:space="preserve">
<style type="text/css">
	.st0{fill:#FFFFFF;}
</style>
<g id="グループ_301" transform="translate(-283.445 -658.93)">
	<g id="グループ_299" transform="translate(283.445 658.93)">
		<path id="パス_593" class="st0" d="M5.7,20.6c0,5.9,2.2,8.2,5,8.2c2.1,0,4.1-1.2,5-3.1c0.1-0.1,0.2-0.2,0.3-0.2
			c0.2,0,0.5,0.2,0.5,0.4c-1.5,2.7-4.3,4.3-7.3,4.3c-5,0-9.1-4-9.1-9c0-0.2,0-0.3,0-0.5C0,15.5,4,11.2,9.1,11c4.1,0,7.5,3.2,7.7,7.3
			c0,0.4,0,0.6-0.2,0.8c-0.1,0.2-0.3,0.2-0.5,0.2c-1.9,0-4.2-0.1-6-0.1s-2.8,0-4.4,0.1C5.7,19.7,5.7,20.1,5.7,20.6z M8.5,18.3
			c0.9,0,1.6,0,2.9-0.1c0.3,0,0.4-0.2,0.4-0.7c0-3.8-0.9-5.8-2.7-5.8s-3,1.9-3.3,6.5C7,18.3,7.7,18.3,8.5,18.3L8.5,18.3z"/>
		<path id="パス_594" class="st0" d="M34.5,25.6c0,2.6,0.4,3.2,1.3,3.2c0.6,0,1.1-0.3,1.5-0.7c0-0.1,0.1-0.1,0.2-0.1
			c0.2,0,0.3,0.1,0.3,0.3l0,0c-1,1.2-2.5,1.8-4,1.6c-2.2,0-3.3-0.7-3.8-2.1c-1.2,1.6-3.2,2.4-5.2,2.3c-1.4,0.1-2.9-0.2-4.1-1
			c-1-0.8-1.5-2-1.5-3.2c-0.1-1.4,0.5-2.7,1.5-3.6s1.8-1.3,5.3-2c1.1-0.1,2.2-0.5,3.1-1.3c0.4-0.4,0.7-0.9,0.7-1.5v-1.2
			c0-3.6-0.9-4.4-3.3-4.4c-1.2,0-2.6,0.8-2.6,1.6c0,0.3,0.1,0.6,0.3,0.7c0.5,0.4,0.7,1,0.7,1.6c0,1.2-0.9,2.3-2.2,2.3
			c-0.1,0-0.2,0-0.3,0c-1.3,0.1-2.4-0.9-2.5-2.1c0-0.1,0-0.2,0-0.3c0-2.3,3.1-4.8,8-4.8c4.6,0,6.5,1.7,6.4,5.8L34.5,25.6z
			 M29.9,19.2c-0.3,0.7-1,1.2-3,1.8c-1.8,0.5-2.6,1.9-2.6,4.4c0,2.3,1.1,3.5,2.5,3.5c1.8-0.1,3.1-1.6,3-3.4c0-0.1,0-0.1,0-0.2
			L29.9,19.2z"/>
		<path id="パス_595" class="st0" d="M46.6,14.9c1-2.8,2.7-3.9,5-3.9c1.6-0.2,3,1,3.1,2.5v0.1c0.1,1.3-0.8,2.5-2.1,2.6
			c-0.1,0-0.2,0-0.3,0c-1.1,0.1-2.1-0.8-2.2-2c0-0.1,0-0.1,0-0.2c0-0.3,0.1-0.6,0.2-0.8c0.1-0.1,0.2-0.3,0.2-0.5
			c0-0.4-0.1-0.6-0.6-0.6c-0.7,0-2,1.2-2.6,3c-0.5,1.1-0.7,2.3-0.7,3.5v7.5c0,2.1,0,2.5,2.8,2.7c0.3,0,0.3,0.1,0.3,0.3
			s0,0.3-0.3,0.3c-1.5-0.1-3.5-0.1-5.2-0.1c-1.6,0-3.3,0-4.8,0.1c-0.3,0-0.3,0-0.3-0.3s0-0.3,0.3-0.3c2.4-0.1,2.5-0.5,2.5-2.7V14.3
			c0-1-0.6-1.5-1.3-1.5H39c-0.3,0-0.3,0-0.3-0.3s0-0.3,0.3-0.3c1.7-0.2,5.5-0.9,7.2-1.2c0.3,0,0.5,0.1,0.5,0.4L46.6,14.9z"/>
		<path id="パス_596" class="st0" d="M56.7,12.8c-0.3,0-0.4,0-0.4-0.4c0-0.3,0-0.4,0.4-0.4c1.4-0.2,2.8-0.8,3.9-1.6
			c1-0.8,1.8-1.8,2.4-3C63.1,7.1,63.2,7,63.6,7s0.5,0.1,0.5,0.4L64,11.8c1.4,0,2.8,0,4.6-0.1c0.2,0,0.3,0.1,0.3,0.3l-0.3,0.9
			c-0.1,0.2-0.1,0.3-0.3,0.3C66.7,13.1,65.5,13,64,13l-0.1,11.5c-0.2,1.3,0.1,2.6,0.6,3.8c0.4,0.5,1.1,0.8,1.8,0.7
			c0.9,0,1.7-0.5,2.2-1.2c0.1-0.1,0.2-0.1,0.3-0.1c0.2,0,0.4,0.2,0.4,0.4c-1.1,1.5-2.8,2.3-4.7,2.2c-1.5,0.1-3-0.4-4.2-1.4
			C59.4,28,59,26.7,59,24.6c0-1.9,0-3.7,0.1-5.5l0.1-6.2L56.7,12.8z"/>
		<path id="パス_597" class="st0" d="M77.8,14.1c1-2,3.1-3.3,5.4-3.2c1.6-0.1,3.2,0.5,4.5,1.5c1.1,1.1,1.7,2.7,1.6,4.3
			c0,1.5,0,3.3,0,4.1v5.3c0,2.2,0,2.5,2.5,2.7c0.3,0,0.3,0.1,0.3,0.3s0,0.3-0.3,0.3c-1.6-0.1-3.1-0.1-4.9-0.1c-1.9,0-3.1,0-4.6,0.1
			c-0.3,0-0.4,0-0.4-0.3s0-0.3,0.4-0.3c2.2-0.1,2.2-0.5,2.2-2.7V17c0-2.4-0.2-3.3-0.7-3.9c-0.5-0.7-1.4-1.1-2.2-1
			c-1.4,0.1-2.5,1-3.1,2.2c-0.5,1-0.6,2-0.6,3.1V26c0,2.2,0,2.5,2.4,2.7c0.3,0,0.3,0.1,0.3,0.3c0,0.3,0,0.3-0.3,0.3
			c-1.5-0.1-3.1-0.1-4.8-0.1c-1.7,0-3.3,0-4.7,0.1c-0.3,0-0.3,0-0.3-0.3s0-0.3,0.3-0.3c2.4-0.1,2.4-0.5,2.4-2.7V3.6
			c0-1-0.5-1.5-1.2-1.5l-1.7,0.1c-0.2,0-0.3,0-0.3-0.3s0-0.3,0.3-0.3c1.9-0.2,5.1-0.8,7.3-1.2c0.3,0,0.4,0.2,0.4,0.4l-0.1,7.4
			L77.8,14.1z"/>
		<path id="パス_598" class="st0" d="M98.4,7.5c0-3.4,3-5.9,6.9-5.9c4.2,0,6.8,2.2,6.8,5c0,3-2.1,4.9-7,5.9
			c2.4,3.5,5.3,7.6,8,10.9c1.1-1.8,1.6-3.9,1.4-6c0-1.2-0.7-2.7-3.3-3c-0.2,0-0.3-0.1-0.3-0.3c0-0.3,0-0.3,0.3-0.3
			c1.3,0.1,2.8,0.1,4.1,0.1s2.8,0,4.1-0.1c0.3,0,0.3,0,0.3,0.3s0,0.3-0.3,0.3c-2,0.3-3.2,1.5-3.7,4.1c-0.3,2-1,3.9-2.1,5.5
			c1,1.5,2.2,2.8,3.5,4c0.7,0.5,1.6,0.7,2.5,0.7c0.3,0,0.3,0.1,0.3,0.3c0,0.3,0,0.3-0.3,0.3c-1.4,0-2.8-0.1-3.8-0.1
			c-1.2,0-2.5,0-3.7,0c-0.6-0.9-1-1.5-1.6-2.4c-2,2.1-4.7,3.2-7.6,3.2c-4.8,0.1-8.8-3.7-8.9-8.5v-0.1c0-3.8,1.9-6,6.7-8.1
			C99.3,11.7,98.5,9.6,98.4,7.5z M98.4,19.4c0,4.7,4,8.7,7.5,8.7c1.5,0,3-0.6,4.1-1.7c-3.1-4-6.2-8.3-8.9-12.4
			C99.3,15.1,98.4,16.7,98.4,19.4L98.4,19.4z M108.1,6.5c0-2.9-1.2-4.2-2.7-4.2c-1.6,0-2.8,1.3-2.8,3.8c0.1,2.1,0.9,4.2,2.2,5.8
			C106.9,11.1,108.1,9.4,108.1,6.5L108.1,6.5z"/>
		<path id="パス_599" class="st0" d="M139.9,20.4c0.1,5.3-4.1,9.6-9.3,9.7c-5.1,0-9.2-4.2-9.2-9.3c0-0.1,0-0.2,0-0.2
			c-0.1-5.2,4-9.6,9.3-9.7c5.1,0,9.2,4.2,9.2,9.3C139.9,20.3,139.9,20.4,139.9,20.4z M127,20.5c0,6.1,1,8.9,3.7,8.9
			c2.7,0,3.7-2.7,3.7-8.9s-1.1-8.8-3.7-8.8S127,14.4,127,20.5z"/>
		<path id="パス_600" class="st0" d="M148.5,14.1c1-2,3.1-3.3,5.3-3.2c1.6-0.1,3.2,0.5,4.4,1.5c1.1,1.1,1.7,2.7,1.6,4.3
			c0,1.5,0,3.3,0,4.1v5.3c0,2.2,0,2.5,2.5,2.7c0.3,0,0.3,0.1,0.3,0.3s0,0.3-0.3,0.3c-1.6-0.1-3.1-0.1-4.9-0.1c-1.8,0-3.1,0-4.6,0.1
			c-0.3,0-0.4,0-0.4-0.3s0-0.3,0.4-0.3c2.1-0.1,2.1-0.5,2.1-2.7V17c0-2.4-0.2-3.3-0.7-3.9c-0.5-0.7-1.3-1.1-2.2-1
			c-1.4,0.1-2.5,1-3.1,2.2c-0.5,1-0.6,2-0.6,3.1V26c0,2.2,0,2.5,2.3,2.7c0.3,0,0.3,0.1,0.3,0.3s0,0.3-0.3,0.3
			c-1.5-0.1-3-0.1-4.7-0.1c-1.8,0-3.1,0-4.7,0.1c-0.3,0-0.3,0-0.3-0.3s0-0.3,0.3-0.3c2.4-0.1,2.4-0.5,2.4-2.7V14
			c0-1-0.5-1.5-1.3-1.5h-1.6c-0.3,0-0.3,0-0.3-0.3s0-0.3,0.3-0.3c2.3-0.3,5.2-0.8,7.2-1.2c0.3,0,0.4,0.1,0.4,0.4L148.5,14.1z"/>
		<path id="パス_601" class="st0" d="M169.1,20.6c0,5.9,2.2,8.2,5,8.2c2.1,0,4.1-1.2,5-3.1c0.1-0.1,0.2-0.2,0.3-0.2
			c0.2,0,0.5,0.2,0.5,0.4c-1.5,2.7-4.3,4.3-7.3,4.3c-5,0-9.1-4-9.1-9c0-0.2,0-0.3,0-0.5c-0.1-5.2,3.9-9.5,9-9.7
			c4.1,0,7.5,3.2,7.7,7.3c0,0.4,0,0.6-0.2,0.8c-0.1,0.2-0.3,0.2-0.5,0.2c-1.9,0-4.2-0.1-6-0.1s-2.8,0-4.4,0.1
			C169.1,19.7,169.1,20.1,169.1,20.6z M171.9,18.3c0.9,0,1.6,0,2.9-0.1c0.3,0,0.4-0.2,0.4-0.7c0-3.8-0.9-5.8-2.7-5.8s-3,1.9-3.3,6.5
			C170.4,18.3,171.2,18.3,171.9,18.3z"/>
	</g>
	<g id="グループ_300" transform="translate(285.818 689.224)">
		<path id="パス_602" class="st0" d="M6.9,19.3c0,1,0.2,1.3,0.5,1.3c0.2,0,0.4-0.1,0.6-0.3c0,0,0,0,0.1,0c0.1,0,0.1,0.1,0.1,0.1
			c-0.4,0.5-1,0.7-1.6,0.6c-0.9,0-1.3-0.3-1.5-0.9c-0.5,0.6-1.3,1-2.1,0.9c-0.6,0-1.2-0.1-1.6-0.4s-0.6-0.8-0.6-1.3s0.2-1.1,0.6-1.4
			c0.6-0.5,1.4-0.8,2.1-0.8c0.5,0,0.9-0.2,1.2-0.5C4.9,16.5,5,16.2,5,16v-0.5c0-1.5-0.4-1.8-1.3-1.8c-0.5,0-1.1,0.3-1.1,0.7
			c0,0.1,0,0.2,0.1,0.3C2.9,14.9,3,15.1,3,15.4c0,0.5-0.4,0.9-0.9,0.9H2c-0.5,0-1-0.3-1-0.8v-0.1c0-0.9,1.3-1.9,3.2-1.9
			s2.6,0.7,2.6,2.3L6.9,19.3z M5.1,16.7C5,17,4.7,17.2,3.9,17.4c-0.7,0.2-1,0.8-1,1.8c0,0.9,0.4,1.4,1,1.4c0.7,0,1.3-0.6,1.2-1.4
			v-0.1V16.7z"/>
		<path id="パス_603" class="st0" d="M25.6,15c0.2-0.9,1-1.6,2-1.6c0.6-0.1,1.2,0.4,1.3,1c0,0,0,0,0,0.1c0,0.5-0.3,1-0.9,1h-0.1
			c-0.5,0-0.9-0.3-0.9-0.8c0,0,0,0,0-0.1s0-0.2,0.1-0.3c0-0.1,0.1-0.1,0.1-0.2c0-0.2-0.1-0.2-0.2-0.2c-0.3,0-0.8,0.5-1.1,1.2
			c-0.2,0.5-0.3,0.9-0.3,1.4v3c0,0.9,0,1,1.1,1.1c0.1,0,0.1,0,0.1,0.1s0,0.1-0.1,0.1c-0.6,0-1.4,0-2.1,0s-1.3,0-1.9,0
			c-0.1,0-0.1,0-0.1-0.1s0-0.1,0.1-0.1c1-0.1,1-0.2,1-1.1v-4.8c0-0.4-0.2-0.6-0.5-0.6h-0.6c-0.1,0-0.1,0-0.1-0.1s0-0.1,0.1-0.1
			c0.7-0.1,2.2-0.3,2.9-0.5c0.1,0,0.2,0,0.2,0.2L25.6,15z"/>
		<path id="パス_604" class="st0" d="M49.3,14c0.4,0.3,0.6,0.7,0.6,1.1c0.1,0.6-0.4,1.1-0.9,1.1c-0.1,0-0.1,0-0.2,0
			c-0.5,0-0.9-0.3-1-0.8v-0.1c0-0.3,0.1-0.5,0.4-0.7c0.1-0.1,0.2-0.2,0.2-0.3c0-0.3-0.3-0.6-0.8-0.6c-1.1,0-1.7,1.1-1.7,3.5
			s0.9,3.3,2,3.3c0.8,0,1.5-0.5,1.7-1.2c0-0.1,0.1-0.1,0.1-0.1c0.1,0,0.2,0.1,0.2,0.2l0,0c-0.4,1.1-1.5,1.7-2.6,1.7
			c-2,0-3.6-1.5-3.7-3.5c0-0.1,0-0.2,0-0.3c-0.1-2.1,1.6-3.8,3.7-3.9l0,0C48.1,13.4,48.8,13.6,49.3,14z"/>
		<path id="パス_605" class="st0" d="M67.8,14.7c0.4-0.8,1.3-1.3,2.2-1.3c0.7,0,1.3,0.2,1.8,0.6c0.5,0.5,0.7,1.1,0.7,1.7
			s0,1.3,0,1.7v2.1c0,0.9,0,1,1,1.1c0.1,0,0.1,0,0.1,0.1s0,0.1-0.1,0.1c-0.6,0-1.2,0-2,0s-1.2,0-1.9,0c-0.1,0-0.2,0-0.2-0.1
			s0-0.1,0.2-0.1c0.9-0.1,0.9-0.2,0.9-1.1v-3.6c0-0.9-0.1-1.3-0.3-1.6c-0.2-0.3-0.6-0.4-0.9-0.4c-0.6,0.1-1,0.4-1.2,0.9
			c-0.2,0.4-0.3,0.8-0.2,1.2v3.5c0,0.9,0,1,0.9,1.1c0.1,0,0.1,0,0.1,0.1s0,0.1-0.1,0.1c-0.6,0-1.2,0-1.9,0s-1.3,0-1.9,0
			c-0.1,0-0.1,0-0.1-0.1s0-0.1,0.1-0.1c1-0.1,1-0.2,1-1.1v-9c0-0.4-0.2-0.6-0.5-0.6h-0.7c-0.1,0-0.1,0-0.1-0.1s0-0.1,0.1-0.1
			c0.8-0.1,2.1-0.3,2.9-0.5c0.1,0,0.2,0.1,0.2,0.2v3L67.8,14.7z"/>
		<path id="パス_606" class="st0" d="M89.2,14.8c0-0.4-0.2-0.6-0.5-0.6h-0.6c-0.1,0-0.1,0-0.1-0.1s0-0.1,0.1-0.1
			c0.8-0.1,2.1-0.3,2.9-0.5c0.1,0,0.2,0.1,0.2,0.2v3v3c0,0.9,0,1,1.1,1.1c0.1,0,0.1,0,0.1,0.1s0,0.1-0.1,0.1c-0.6,0-1.3,0-2,0
			s-1.4,0-2,0c-0.1,0-0.1,0-0.1-0.1s0-0.1,0.1-0.1c1-0.1,1-0.2,1-1.1L89.2,14.8z M91.2,10.6c-0.1,0.6-0.6,1.1-1.3,1.1
			c-0.6,0-1-0.5-1.1-1.1s0.4-1.2,1.1-1.3c0.6-0.1,1.2,0.4,1.3,1.1C91.2,10.4,91.2,10.5,91.2,10.6z"/>
		<path id="パス_607" class="st0" d="M106.9,14.1c-0.1,0-0.1,0-0.1-0.1s0-0.2,0.2-0.2c0.6-0.1,1.1-0.3,1.6-0.7
			c0.4-0.3,0.7-0.7,0.9-1.2c0.1-0.1,0.1-0.1,0.2-0.1c0.2,0,0.2,0,0.2,0.1v1.8c0.6,0,1.1,0,1.8-0.1c0.1,0,0.1,0,0.1,0.1l-0.1,0.3
			c0,0.1-0.1,0.1-0.1,0.1c-0.6-0.1-1.1-0.1-1.7-0.1v4.6c-0.1,0.5,0,1,0.2,1.5c0.2,0.2,0.4,0.3,0.7,0.3c0.4,0,0.7-0.2,0.9-0.5h0.1
			c0.1,0,0.2,0.1,0.2,0.2c-0.4,0.6-1.1,0.9-1.9,0.9c-0.6,0.1-1.2-0.1-1.7-0.6c-0.4-0.5-0.6-1.1-0.5-1.7c0-0.8,0-1.5,0-2.2V14
			L106.9,14.1z"/>
		<path id="パス_608" class="st0" d="M128.9,17.3c0,2.4,0.9,3.3,2,3.3c0.9,0,1.6-0.5,2-1.3c0-0.1,0.1-0.1,0.1-0.1
			c0.1,0,0.2,0.1,0.2,0.2c-0.6,1.1-1.7,1.7-2.9,1.7c-2,0-3.7-1.6-3.7-3.6c0-0.1,0-0.1,0-0.2c-0.1-2.1,1.6-3.8,3.6-3.9
			c1.7,0,3,1.3,3.1,2.9c0,0.2,0,0.2-0.1,0.3s-0.1,0.1-0.2,0.1c-0.8,0-1.7,0-2.4,0s-1.1,0-1.8,0C128.9,16.9,128.9,17.1,128.9,17.3z
			 M130,16.4c0.4,0,0.6,0,1.2-0.1c0.1,0,0.1-0.1,0.1-0.3c0-1.5-0.4-2.3-1.1-2.3s-1.2,0.8-1.3,2.6C129.4,16.4,129.7,16.4,130,16.4
			L130,16.4z"/>
		<path id="パス_609" class="st0" d="M154.3,14c0.4,0.3,0.6,0.7,0.6,1.1c0.1,0.6-0.4,1.1-0.9,1.1c-0.1,0-0.1,0-0.2,0
			c-0.5,0-0.9-0.3-1-0.8v-0.1c0-0.3,0.1-0.5,0.4-0.7c0.1-0.1,0.2-0.2,0.2-0.3c0-0.3-0.3-0.6-0.8-0.6c-1.1,0-1.7,1.1-1.7,3.5
			s0.9,3.3,2,3.3c0.8,0,1.5-0.5,1.7-1.2c0-0.1,0.1-0.1,0.1-0.1c0.1,0,0.2,0.1,0.2,0.2l0,0c-0.4,1.1-1.5,1.7-2.6,1.7
			c-2,0-3.6-1.5-3.7-3.5c0-0.1,0-0.2,0-0.3c-0.1-2.1,1.6-3.8,3.7-3.9l0,0C153,13.4,153.7,13.6,154.3,14z"/>
		<path id="パス_610" class="st0" d="M169.8,14.1c-0.1,0-0.1,0-0.1-0.1s0-0.2,0.2-0.2c0.6-0.1,1.1-0.3,1.6-0.7
			c0.4-0.3,0.7-0.7,0.9-1.2c0.1-0.1,0.1-0.1,0.2-0.1c0.2,0,0.2,0,0.2,0.1v1.8c0.6,0,1.1,0,1.8-0.1c0.1,0,0.1,0,0.1,0.1l-0.1,0.3
			c0,0.1-0.1,0.1-0.1,0.1c-0.6-0.1-1.1-0.1-1.7-0.1v4.6c-0.1,0.5,0,1,0.2,1.5c0.2,0.2,0.4,0.3,0.7,0.3c0.4,0,0.7-0.2,0.9-0.5h0.1
			c0.1,0,0.2,0.1,0.1,0.2c-0.4,0.6-1.1,0.9-1.9,0.9c-0.6,0.1-1.2-0.1-1.7-0.6c-0.4-0.5-0.6-1.1-0.5-1.7c0-0.8,0-1.5,0-2.2V14
			L169.8,14.1z"/>
	</g>
</g>
</svg>
